<svg xmlns="http://www.w3.org/2000/svg" width="1500" height="637" viewBox="0 0 1500 637">
<g>
<path d="M 237.00 587.75 C237.00,588.16 232.28,588.50 226.50,588.50 C220.73,588.50 216.00,588.16 216.00,587.75 C216.00,587.34 220.73,587.00 226.50,587.00 C232.27,587.00 237.00,587.34 237.00,587.75 ZM 691.00 587.75 C691.00,588.16 686.50,588.50 681.00,588.50 C675.50,588.50 671.00,588.16 671.00,587.75 C671.00,587.34 675.50,587.00 681.00,587.00 C686.50,587.00 691.00,587.34 691.00,587.75 ZM 786.00 587.88 C786.00,588.37 784.89,588.98 783.53,589.24 C782.03,589.53 781.30,589.32 781.68,588.71 C782.09,588.05 779.98,587.89 775.64,588.24 C771.98,588.53 768.73,588.37 768.43,587.89 C768.13,587.40 771.94,587.00 776.94,587.00 C781.92,587.00 786.00,587.40 786.00,587.88 ZM 384.00 587.56 C380.38,588.34 360.00,588.57 360.00,587.82 C360.00,587.37 365.74,587.05 372.75,587.12 C379.76,587.18 384.83,587.38 384.00,587.56 ZM 1177.00 628.30 C1177.00,631.38 1176.50,631.75 1175.57,629.33 C1175.22,628.42 1175.40,627.20 1175.97,626.63 C1176.68,625.92 1177.00,626.44 1177.00,628.30 ZM 178.00 627.80 C178.00,630.21 177.48,630.59 176.45,628.91 C176.08,628.31 176.28,627.32 176.89,626.71 C177.70,625.90 178.00,626.18 178.00,627.80 Z" fill="rgb(200,98,102)"/>
<path d="M 1215.00 75.00 L 1215.00 83.00 L 744.17 83.00 C485.21,83.00 273.03,82.70 272.67,82.33 C272.30,81.97 272.00,80.17 272.00,78.33 L 272.00 75.00 L 360.00 75.00 L 360.00 56.00 L 450.92 56.00 L 451.21 65.25 L 451.50 74.50 L 478.00 74.78 C492.58,74.94 505.51,74.81 506.75,74.51 C508.83,74.00 509.00,73.41 509.00,66.48 L 509.00 59.00 L 757.92 59.00 L 758.50 74.50 L 815.50 74.50 L 816.10 64.00 L 875.95 64.00 C880.26,64.00 884.27,64.00 888.00,64.00 C928.56,63.98 935.72,63.97 936.87,66.60 C937.12,67.16 937.09,67.85 937.05,68.68 C937.03,69.04 937.01,69.42 937.02,69.83 C937.02,69.97 937.02,70.10 937.02,70.23 C937.02,71.28 937.02,72.10 937.36,72.74 C938.58,75.03 944.18,74.99 969.84,74.78 L 972.56 74.76 L 1006.48 74.50 L 1008.15 64.00 L 1129.00 64.00 L 1129.00 75.00 ZM 1215.00 43.00 L 1215.00 51.00 L 272.00 51.00 L 272.00 43.02 L 315.75 42.76 L 359.50 42.50 L 359.79 33.25 L 360.08 24.00 L 450.92 24.00 L 451.21 33.25 L 451.50 42.50 L 508.50 42.50 L 508.79 34.75 L 509.08 27.00 L 757.92 27.00 L 758.50 42.50 L 815.50 42.50 L 815.80 37.24 L 816.11 31.98 L 872.29 32.24 L 928.48 32.50 L 930.16 43.02 L 1014.50 42.50 L 1014.77 39.50 C1014.93,37.85 1015.27,35.49 1015.54,34.25 L 1016.04 32.00 L 1129.00 32.00 L 1129.00 43.00 ZM 1215.00 107.00 L 1215.00 115.00 L 744.17 115.00 C485.21,115.00 273.03,114.70 272.67,114.33 C272.30,113.97 272.00,112.17 272.00,110.33 L 272.00 107.00 L 360.00 107.00 L 360.00 88.00 L 450.92 88.00 L 451.21 97.25 L 451.50 106.50 L 587.50 106.50 L 587.82 104.26 L 588.14 102.02 L 548.82 101.76 L 509.50 101.50 L 509.20 96.25 L 508.90 91.00 L 758.10 91.00 L 757.50 101.50 L 718.35 101.76 C686.90,101.97 679.10,102.28 678.70,103.35 C677.30,106.98 678.08,107.02 747.56,106.76 L 815.50 106.50 L 815.80 101.41 L 816.09 96.32 L 856.66 95.66 C878.97,95.30 907.75,95.30 920.61,95.66 L 944.00 96.32 L 944.00 99.09 C944.00,100.62 944.44,103.03 944.98,104.45 L 945.96 107.03 L 998.50 106.50 L 999.36 101.41 L 1000.23 96.31 L 1023.60 95.68 C1036.46,95.32 1065.43,95.33 1087.99,95.68 L 1129.00 96.32 L 1129.00 107.00 ZM 1215.00 266.00 L 1215.00 275.00 L 744.17 275.00 C485.21,275.00 273.03,274.70 272.67,274.33 C272.30,273.97 272.00,271.95 272.00,269.84 L 272.00 266.02 L 315.75 265.76 L 359.50 265.50 L 359.79 256.25 L 360.08 247.00 L 450.92 247.00 L 451.21 256.25 L 451.50 265.50 L 587.50 265.50 L 588.08 250.00 L 679.00 250.00 L 679.00 266.01 L 747.25 265.76 L 815.50 265.50 L 816.10 255.00 L 895.00 255.00 L 895.00 266.05 L 924.50 265.50 L 924.18 260.25 L 923.86 255.00 L 1018.00 255.00 L 1018.00 266.05 L 1033.25 265.78 L 1048.50 265.50 L 1049.10 255.00 L 1129.00 255.00 L 1129.00 266.00 ZM 1176.22 626.42 C1176.14,626.47 1176.06,626.54 1175.97,626.63 C1175.40,627.20 1175.22,628.42 1175.57,629.33 C1176.36,631.39 1176.84,631.43 1176.97,629.49 C1176.91,631.06 1176.59,632.94 1176.02,634.43 L 1175.05 637.00 L 1192.77 636.92 C1202.52,636.88 1209.91,636.61 1209.20,636.32 C1208.39,636.00 1209.11,635.17 1211.11,634.15 C1213.99,632.67 1215.33,630.16 1224.10,609.65 C1229.48,597.08 1234.16,586.50 1234.52,586.15 C1235.70,584.97 1237.75,588.97 1246.62,609.81 C1255.17,629.90 1258.18,635.00 1261.51,635.00 C1262.40,635.00 1262.84,635.45 1262.50,636.00 C1262.09,636.66 1285.56,636.98 1332.19,636.94 C1375.17,636.90 1401.63,636.52 1400.25,635.97 C1398.30,635.18 1398.00,634.33 1398.00,629.53 C1398.00,623.66 1399.37,622.08 1400.32,626.85 C1401.01,630.29 1404.92,633.05 1410.09,633.74 C1413.36,634.18 1414.34,633.82 1416.95,631.20 C1422.45,625.70 1420.98,620.95 1412.09,615.56 C1405.83,611.75 1400.63,606.56 1399.49,602.98 C1398.26,599.09 1399.90,594.30 1403.55,591.09 C1407.86,587.30 1409.73,586.82 1418.52,587.20 L 1425.50 587.50 L 1425.99 598.50 L 1424.58 595.33 C1423.80,593.58 1422.26,591.67 1421.15,591.08 C1416.41,588.54 1407.78,590.92 1406.69,595.06 C1405.74,598.69 1407.81,601.31 1415.75,606.50 C1425.29,612.74 1427.33,615.43 1427.43,621.90 C1427.51,627.49 1425.46,631.04 1420.01,634.75 L 1416.70 637.00 L 341.69 637.00 C354.01,637.00 361.89,636.63 361.54,636.07 C361.23,635.56 361.99,635.00 363.23,634.82 C364.82,634.60 365.68,633.61 366.13,631.50 C367.22,626.37 367.08,593.02 365.96,590.93 C365.37,589.83 363.88,589.00 362.46,589.00 C361.11,589.00 360.00,588.55 360.00,588.00 C360.00,587.96 360.02,587.93 360.05,587.89 C361.16,588.53 379.08,588.34 383.54,587.64 C389.77,588.52 392.82,590.40 394.08,593.70 C395.41,597.16 393.92,602.85 391.01,605.49 C388.31,607.93 388.46,608.67 392.04,610.52 C398.79,614.01 401.08,623.60 396.73,630.10 C395.13,632.49 392.97,634.01 389.48,635.21 C384.56,636.89 384.85,636.91 412.50,636.89 C427.90,636.87 439.60,636.50 438.50,636.05 C436.64,635.31 436.68,635.22 439.00,634.87 C441.38,634.52 441.54,634.07 442.31,625.50 C443.46,612.72 442.68,591.52 440.98,589.47 C439.74,587.98 440.78,587.87 453.73,588.17 C467.04,588.48 467.99,588.64 470.41,590.91 C473.22,593.55 474.58,598.56 473.58,602.55 C473.22,603.96 471.17,607.03 469.02,609.37 L 465.10 613.62 L 471.94 621.65 C479.56,630.59 483.15,633.75 486.76,634.65 C488.57,635.11 488.85,635.48 487.85,636.12 C487.07,636.61 492.20,636.95 500.00,636.91 C508.46,636.88 512.75,636.54 511.50,636.00 C509.58,635.18 509.58,635.14 511.42,635.07 C512.48,635.03 514.12,634.30 515.06,633.44 C516.01,632.59 521.20,621.56 526.61,608.94 C532.02,596.32 536.93,586.00 537.52,586.00 C538.12,586.00 543.09,596.46 548.56,609.25 C557.63,630.43 558.81,632.65 561.81,634.15 C563.84,635.16 564.60,636.00 563.80,636.32 C563.09,636.61 571.64,636.88 582.81,636.92 C596.11,636.97 602.90,636.66 602.50,636.00 C602.16,635.45 602.57,635.00 603.41,635.00 C606.42,635.00 607.00,631.20 607.00,611.57 L 607.00 592.00 L 599.56 592.00 C593.03,592.00 591.92,592.27 590.58,594.19 C588.51,597.14 587.80,596.10 588.75,591.52 L 589.54 587.74 L 611.77 587.62 L 634.00 587.50 L 634.00 591.75 C634.00,594.09 633.55,596.00 633.00,596.00 C632.45,596.00 632.00,595.37 632.00,594.61 C632.00,592.62 629.73,592.00 622.42,592.00 L 616.00 592.00 L 616.00 611.93 C616.00,633.36 616.37,634.98 621.32,635.02 C623.09,635.03 623.22,635.21 622.00,636.00 C621.01,636.64 629.53,636.97 647.00,636.97 C662.96,636.97 672.94,636.61 672.09,636.08 C671.00,635.39 671.23,635.10 673.09,634.84 L 675.50 634.50 L 675.50 589.50 L 673.25 589.18 C672.01,589.00 671.00,588.44 671.00,587.93 C671.00,587.90 671.02,587.86 671.06,587.83 C671.60,588.21 675.86,588.50 681.00,588.50 C686.14,588.50 690.40,588.21 690.94,587.83 C690.98,587.86 691.00,587.90 691.00,587.93 C691.00,588.44 689.99,589.00 688.75,589.18 C686.65,589.48 686.46,590.14 685.86,599.00 C685.06,610.72 685.92,632.06 687.26,633.75 C687.80,634.44 689.43,635.03 690.87,635.07 C693.24,635.13 693.30,635.23 691.50,636.00 C690.30,636.51 698.35,636.86 711.50,636.86 C724.65,636.86 732.70,636.51 731.50,636.00 C729.52,635.15 729.52,635.14 731.55,635.07 C735.72,634.93 736.00,633.52 736.00,612.92 C736.00,592.41 736.49,587.00 738.36,587.00 C738.98,587.00 747.46,594.97 757.20,604.70 C766.95,614.44 775.21,622.13 775.55,621.78 C775.89,621.44 775.80,614.04 775.34,605.33 L 774.50 589.50 L 772.00 589.17 C770.78,589.00 769.41,588.54 768.76,588.08 C769.72,588.41 772.53,588.49 775.64,588.24 C779.98,587.89 782.09,588.05 781.68,588.71 C781.39,589.18 781.75,589.41 782.62,589.36 C781.27,590.52 781.07,595.36 780.53,615.25 L 779.94 637.00 L 813.22 636.97 L 846.50 636.93 L 841.20 635.11 C829.91,631.21 824.00,623.35 824.00,612.26 C824.00,601.51 828.76,594.00 838.50,589.39 C842.54,587.48 845.14,587.02 852.00,587.02 C856.67,587.02 862.86,587.30 865.75,587.65 L 871.00 588.28 L 871.00 594.14 C871.00,600.55 870.05,601.61 868.34,597.09 C865.91,590.65 851.37,587.83 843.06,592.18 C836.41,595.66 834.60,598.76 834.16,607.47 C833.95,611.62 834.32,616.43 835.00,618.50 C836.44,622.86 841.19,628.53 845.10,630.55 C849.78,632.97 857.30,634.22 860.32,633.07 C862.91,632.08 863.00,631.79 862.98,624.27 C862.98,620.00 862.64,616.01 862.23,615.40 C861.83,614.79 860.15,613.82 858.50,613.23 C856.05,612.35 857.50,612.16 866.50,612.19 C875.38,612.21 876.98,612.42 874.78,613.29 C872.11,614.35 872.06,614.52 871.78,624.40 L 871.50 634.44 L 867.50 635.64 C864.29,636.61 875.21,636.83 923.00,636.74 C955.72,636.69 979.12,636.38 975.00,636.05 C970.88,635.73 968.61,635.25 969.96,634.98 C973.43,634.30 973.79,632.11 973.90,610.97 C973.98,595.71 973.73,592.05 972.44,590.22 L 970.89 588.00 L 986.91 588.00 C1000.50,588.00 1003.74,588.30 1008.30,590.01 C1017.61,593.49 1021.43,599.58 1021.47,611.00 C1021.52,623.73 1016.10,631.26 1004.12,635.09 L 998.50 636.89 L 1032.00 636.81 C1050.43,636.76 1064.42,636.52 1063.11,636.28 L 1060.72 635.82 L 1065.50 633.44 L 1065.77 611.97 C1066.01,592.67 1065.87,590.38 1064.33,589.25 C1062.93,588.23 1065.05,588.00 1076.06,588.01 C1091.21,588.03 1093.51,588.72 1096.40,594.07 C1099.07,599.03 1097.96,604.01 1092.94,609.44 L 1089.01 613.71 L 1095.34 621.13 C1102.82,629.89 1107.22,633.77 1110.67,634.63 C1112.54,635.10 1112.84,635.48 1111.84,636.12 C1111.07,636.61 1117.97,636.97 1128.00,636.97 C1138.67,636.97 1144.95,636.62 1144.09,636.08 C1143.00,635.39 1143.23,635.10 1145.07,634.84 C1148.32,634.38 1148.87,630.75 1148.94,609.47 C1148.99,595.61 1148.71,592.03 1147.44,590.22 L 1145.89 588.00 L 1158.19 587.99 C1164.96,587.98 1171.51,587.70 1172.75,587.37 C1174.85,586.81 1175.00,587.08 1175.00,591.38 C1175.00,593.92 1174.55,596.00 1174.00,596.00 C1173.45,596.00 1173.00,595.35 1173.00,594.56 C1173.00,592.53 1172.35,592.29 1164.75,591.49 L 1158.00 590.77 L 1158.00 599.41 C1158.00,605.42 1158.38,608.21 1159.25,608.53 C1159.94,608.79 1163.54,608.63 1167.25,608.18 L 1174.00 607.36 L 1174.00 612.18 C1174.00,614.83 1173.55,617.00 1173.00,617.00 C1172.45,617.00 1172.00,616.15 1172.00,615.11 C1172.00,612.68 1170.12,612.00 1163.42,612.00 L 1158.00 612.00 L 1158.00 620.88 C1158.00,627.30 1158.39,630.08 1159.41,630.93 C1163.35,634.19 1175.00,632.74 1175.00,628.98 C1175.00,627.96 1175.45,626.84 1176.00,626.50 C1176.08,626.45 1176.15,626.43 1176.22,626.42 ZM 970.33 178.33 C655.50,179.19 273.52,179.19 272.67,178.33 C272.30,177.97 272.00,176.17 272.00,174.34 L 272.00 171.02 L 359.50 170.50 L 359.79 161.25 L 360.08 152.00 L 451.00 152.00 L 451.00 169.73 L 455.64 170.36 C461.64,171.19 580.76,171.20 584.88,170.38 L 588.00 169.75 L 588.00 154.00 L 679.00 154.00 L 679.00 161.89 C679.00,169.32 679.14,169.82 681.33,170.37 C684.23,171.10 809.49,171.03 813.25,170.30 C815.84,169.80 816.00,169.46 816.00,164.38 L 816.00 159.00 L 895.00 159.00 L 895.00 164.38 C895.00,169.33 895.20,169.81 897.50,170.24 C898.88,170.51 901.12,170.51 902.50,170.24 C904.75,169.81 905.00,169.29 905.00,165.01 C905.00,160.48 905.15,160.22 908.12,159.62 C909.84,159.28 921.93,159.00 934.99,159.00 L 958.72 159.00 L 959.33 164.14 C959.66,166.96 960.21,169.55 960.55,169.89 C961.41,170.74 981.67,170.66 982.53,169.80 C982.92,169.41 983.46,167.10 983.73,164.66 C984.21,160.46 984.43,160.19 987.87,159.62 C989.87,159.29 1002.25,159.02 1015.39,159.01 L 1039.28 159.00 L 1038.64 164.39 C1038.04,169.49 1038.14,169.82 1040.41,170.39 C1041.73,170.72 1044.20,170.71 1045.90,170.37 C1048.90,169.77 1049.00,169.58 1049.00,164.38 L 1049.00 159.00 L 1129.00 159.00 L 1129.00 164.50 C1129.00,169.50 1129.20,170.01 1131.25,170.12 C1132.49,170.18 1133.95,170.34 1134.50,170.46 C1135.05,170.59 1153.39,170.76 1175.25,170.85 L 1215.00 171.00 L 1215.00 177.67 ZM 1215.00 139.00 L 1215.00 147.00 L 744.17 147.00 C485.21,147.00 273.03,146.70 272.67,146.33 C272.30,145.97 272.00,144.17 272.00,142.34 L 272.00 139.02 L 359.50 138.50 L 359.79 129.25 L 360.08 120.00 L 450.92 120.00 L 451.21 129.25 L 451.50 138.50 L 587.50 138.50 L 588.08 123.00 L 679.00 123.00 L 679.00 139.01 L 815.50 138.50 L 816.10 128.00 L 894.90 128.00 L 895.20 133.25 C895.42,137.12 895.90,138.50 897.00,138.50 C898.10,138.50 898.58,137.13 898.80,133.35 L 899.10 128.20 L 924.80 127.81 C938.93,127.59 950.66,127.52 950.85,127.64 C951.04,127.77 951.49,130.26 951.85,133.18 L 952.50 138.50 L 971.62 138.77 L 990.74 139.04 L 991.37 135.90 C991.72,134.17 992.00,131.68 992.00,130.38 L 992.00 128.00 L 1045.14 128.00 L 1044.82 133.22 C1044.56,137.40 1044.82,138.50 1046.13,138.77 C1047.42,139.03 1047.90,137.94 1048.45,133.55 L 1049.14 128.00 L 1129.00 128.00 L 1129.00 139.00 ZM 451.68 10.35 C452.06,10.72 464.99,10.91 480.43,10.77 L 508.50 10.50 L 508.80 5.25 L 509.10 0.00 L 758.00 0.00 L 758.00 2.38 C758.00,3.68 758.28,6.16 758.62,7.88 L 759.25 11.00 L 814.77 11.00 L 815.37 8.75 C815.70,7.51 815.98,5.04 815.99,3.25 L 816.00 0.00 L 919.91 0.00 L 920.54 3.75 C920.89,5.81 921.39,8.29 921.65,9.25 C922.10,10.89 925.38,11.00 972.52,11.00 L 1022.91 11.00 L 1023.54 7.25 C1023.89,5.19 1024.39,2.71 1024.65,1.75 C1025.11,0.10 1022.15,0.00 972.52,0.00 L 1129.00 0.00 L 1129.00 11.00 L 1215.00 11.00 L 1215.00 19.00 L 272.00 19.00 L 272.00 11.02 L 315.75 10.76 L 359.50 10.50 L 359.80 5.25 L 360.10 0.00 L 451.00 0.00 L 451.00 4.83 C451.00,7.49 451.31,9.97 451.68,10.35 ZM 1215.00 235.29 L 1215.00 242.00 L 272.00 242.00 L 272.00 234.00 L 360.00 234.00 L 360.00 215.00 L 451.00 215.00 L 451.00 234.00 L 588.00 234.00 L 588.00 218.00 L 679.00 218.00 L 679.00 234.00 L 816.00 234.00 L 816.00 223.00 L 895.00 223.00 L 895.00 234.00 L 918.28 234.00 L 917.14 223.00 L 1025.25 223.00 L 1024.79 228.50 L 1024.34 234.00 L 1049.00 234.00 L 1049.00 223.00 L 1129.00 223.00 L 1129.00 234.00 L 1164.35 234.00 C1183.79,234.00 1203.14,234.29 1207.35,234.65 ZM 1214.81 206.25 L 1215.12 210.00 L 272.00 210.00 L 272.00 202.00 L 360.00 202.00 L 360.00 183.00 L 451.00 183.00 L 451.00 202.00 L 588.00 202.00 L 588.00 194.50 C588.00,190.38 588.34,186.97 588.75,186.94 C596.43,186.34 641.81,186.11 657.75,186.60 L 679.00 187.24 L 679.00 202.00 L 816.00 202.00 L 816.00 191.00 L 895.00 191.00 L 895.00 202.00 L 903.25 202.00 L 911.50 202.00 L 911.16 196.50 L 910.81 191.00 L 965.75 191.00 L 966.38 194.12 C966.72,195.84 967.00,198.32 967.00,199.62 C967.00,201.73 967.46,202.00 970.98,202.00 C975.23,202.00 975.59,201.50 976.23,194.50 L 976.50 191.50 L 1004.25 191.23 L 1032.00 190.97 L 1032.00 202.08 L 1040.25 201.79 L 1048.50 201.50 L 1049.10 191.00 L 1129.00 191.00 L 1129.00 201.98 L 1171.75 202.24 L 1214.50 202.50 ZM 1215.00 298.00 L 1215.00 306.00 L 272.00 306.00 L 272.00 298.02 L 315.75 297.76 L 359.50 297.50 L 359.79 288.25 L 360.08 279.00 L 450.92 279.00 L 451.21 288.25 L 451.50 297.50 L 587.50 297.50 L 588.08 282.00 L 679.00 282.00 L 679.00 298.01 L 747.25 297.76 L 815.50 297.50 L 815.81 292.52 C815.99,289.78 816.66,287.18 817.31,286.74 C818.52,285.93 891.45,285.96 893.75,286.77 C894.54,287.05 895.00,289.20 895.00,292.63 L 895.00 298.05 L 931.50 297.50 L 930.82 287.00 L 1011.00 287.00 L 1011.00 298.04 L 1048.50 297.50 L 1048.80 292.35 C1049.05,287.99 1049.44,287.11 1051.30,286.65 C1054.48,285.85 1114.85,285.83 1122.53,286.61 L 1129.00 287.28 L 1129.00 298.00 ZM 1215.00 330.00 L 1215.00 338.00 L 744.17 338.00 C485.21,338.00 273.03,337.70 272.67,337.33 C272.30,336.97 272.00,335.17 272.00,333.33 L 272.00 330.00 L 360.00 330.00 L 360.00 311.00 L 450.92 311.00 L 451.21 320.25 L 451.50 329.50 L 587.50 329.50 L 588.08 314.00 L 679.00 314.00 L 679.00 330.01 L 747.25 329.76 L 815.50 329.50 L 816.10 319.00 L 895.00 319.00 L 895.00 330.00 L 938.00 330.00 L 938.00 319.00 L 1004.00 319.00 L 1004.00 330.04 L 1048.50 329.50 L 1049.10 319.00 L 1129.00 319.00 L 1129.00 330.00 ZM 787.05 428.00 L 786.50 457.50 L 779.96 457.79 C776.36,457.95 773.10,457.76 772.71,457.37 C772.32,456.99 772.00,440.73 772.00,421.25 L 772.00 385.84 L 794.75 386.17 C814.70,386.46 817.97,386.73 821.34,388.41 C832.59,393.99 834.31,412.25 824.40,420.95 C822.49,422.63 820.53,424.00 820.03,424.00 C819.54,424.00 817.94,424.45 816.48,425.01 L 813.83 426.01 L 818.17 430.26 C822.33,434.33 836.00,454.86 836.00,457.03 C836.00,457.70 833.04,457.98 827.75,457.79 L 819.50 457.50 L 810.49 444.16 C805.53,436.83 800.36,430.21 798.99,429.45 C797.62,428.69 794.37,428.05 791.78,428.04 ZM 176.05 637.00 L 206.27 636.80 C226.34,636.67 232.97,636.40 226.00,636.00 C220.23,635.67 216.50,635.30 217.71,635.20 C221.62,634.85 222.06,632.20 221.77,610.28 L 221.50 589.50 L 218.75 589.18 C217.24,589.01 216.00,588.45 216.00,587.93 C216.00,587.90 216.02,587.86 216.06,587.83 C216.63,588.21 221.11,588.50 226.50,588.50 C231.81,588.50 236.23,588.22 236.91,587.85 C236.97,587.90 237.00,587.95 237.00,588.00 C237.00,588.55 235.92,589.00 234.61,589.00 C233.29,589.00 231.94,589.71 231.61,590.58 C231.27,591.45 231.00,600.37 231.00,610.39 L 231.00 611.00 C231.00,624.59 231.00,629.52 233.38,631.33 C234.77,632.39 236.97,632.39 240.45,632.43 C246.38,632.49 247.40,632.22 249.11,630.11 C251.70,626.92 252.64,628.16 251.34,633.03 L 250.28 637.00 L 278.89 636.81 C297.53,636.68 304.19,636.40 298.00,636.00 C292.77,635.66 289.46,635.30 290.64,635.19 C291.82,635.09 293.06,634.29 293.39,633.42 C294.60,630.27 294.07,590.47 292.80,589.20 C291.87,588.27 294.52,588.00 304.72,588.00 C311.93,588.00 318.55,587.73 319.42,587.39 C320.64,586.92 320.98,587.43 320.93,589.64 C320.89,591.21 320.51,593.40 320.08,594.50 C319.32,596.44 319.27,596.43 318.58,594.25 C318.13,592.83 317.06,592.00 315.68,591.99 C314.48,591.99 311.14,591.70 308.25,591.35 L 303.00 590.72 L 303.00 599.29 C303.00,609.32 303.02,609.35 313.00,608.08 C316.58,607.63 319.65,607.39 319.83,607.54 C320.00,607.69 319.82,610.00 319.42,612.66 C319.01,615.32 318.48,616.83 318.23,616.00 C317.37,613.17 314.61,612.00 308.81,612.00 L 303.00 612.00 L 303.00 620.31 C303.00,630.33 303.97,632.02 310.06,632.69 C315.43,633.28 320.01,631.69 320.71,628.99 C321.00,627.89 321.63,627.00 322.12,627.00 C323.16,627.00 323.16,627.23 322.09,632.75 L 321.27 637.00 L 0.00 637.00 L 40.75 636.93 C74.95,636.88 80.86,636.66 77.50,635.61 C71.66,633.78 65.56,629.42 62.33,624.76 C59.88,621.22 59.46,619.59 59.23,612.59 C58.99,605.71 59.31,603.82 61.30,600.00 C64.10,594.64 70.48,589.49 76.29,587.91 C80.37,586.80 103.41,587.08 104.59,588.25 C104.88,588.55 104.81,591.52 104.44,594.85 L 103.75 600.92 L 101.63 596.71 C98.94,591.39 94.34,589.61 85.13,590.31 C78.37,590.82 75.25,592.45 71.56,597.38 C68.48,601.51 68.04,615.20 70.81,620.60 C74.82,628.39 82.10,633.00 90.40,633.00 C96.50,633.00 99.77,631.57 101.79,628.02 C104.13,623.91 105.36,624.24 104.56,628.75 C103.49,634.75 103.01,635.84 101.20,636.32 C100.27,636.57 110.07,636.81 123.00,636.87 C137.15,636.93 145.94,636.61 145.09,636.08 C144.00,635.39 144.23,635.10 146.09,634.84 C148.16,634.55 148.59,633.80 149.16,629.50 C149.53,626.75 149.86,617.29 149.91,608.47 C149.98,595.48 149.71,592.02 148.44,590.22 L 146.89 588.00 L 159.86 588.00 C167.00,588.00 173.55,587.73 174.42,587.39 C175.72,586.89 176.00,587.60 176.00,591.39 C176.00,593.93 175.55,596.00 175.00,596.00 C174.45,596.00 174.00,595.35 174.00,594.56 C174.00,592.56 173.40,592.34 165.75,591.54 L 159.00 590.84 L 159.00 599.36 C159.00,604.05 159.38,608.11 159.83,608.40 C160.29,608.68 163.89,608.57 167.83,608.15 L 175.00 607.38 L 175.00 612.19 C175.00,614.84 174.55,617.00 174.00,617.00 C173.45,617.00 173.00,616.15 173.00,615.11 C173.00,612.68 171.12,612.00 164.42,612.00 L 159.00 612.00 L 159.00 620.88 C159.00,627.30 159.39,630.08 160.41,630.93 C164.20,634.07 175.20,633.01 175.85,629.44 C175.93,628.97 176.08,628.46 176.27,628.00 C176.23,628.33 176.29,628.66 176.45,628.91 C177.38,630.43 177.90,630.27 177.99,628.43 C178.01,630.18 177.69,632.69 177.02,634.43 ZM 397.50 411.54 L 396.96 458.00 L 384.00 458.00 L 384.00 386.00 L 397.82 386.00 L 403.26 394.75 C413.07,410.51 422.72,426.43 424.63,430.00 L 426.50 433.50 L 427.04 386.00 L 441.03 386.00 L 440.50 457.50 L 433.50 457.79 L 426.49 458.08 L 418.57 445.29 C411.03,433.12 408.89,429.69 400.94,417.02 ZM 721.00 446.04 L 721.00 458.00 L 667.00 458.00 L 667.00 386.00 L 720.00 386.00 L 720.00 398.00 L 680.92 398.00 L 681.50 413.50 L 717.00 414.05 L 717.00 426.00 L 680.93 426.00 L 681.21 435.75 L 681.50 445.50 L 701.25 445.77 ZM 921.83 457.46 C911.02,460.67 896.36,458.64 889.24,452.96 C885.52,449.99 881.42,442.88 880.47,437.75 C879.78,434.02 879.80,434.00 883.14,433.99 C884.99,433.98 888.14,433.71 890.14,433.38 C893.60,432.80 893.82,432.94 894.95,436.34 C895.59,438.30 897.63,441.23 899.48,442.85 C907.35,449.76 921.27,446.89 923.50,437.89 C924.66,433.23 920.93,430.51 908.50,426.96 C895.39,423.22 889.30,420.12 886.22,415.62 C878.11,403.78 883.83,389.82 898.40,385.89 C904.86,384.15 919.70,385.21 924.62,387.77 C929.87,390.50 933.65,394.98 935.04,400.15 C936.70,406.30 936.04,407.00 928.54,407.00 C922.09,407.00 922.01,406.97 920.62,403.63 C918.55,398.69 915.53,397.00 908.73,397.00 C898.98,397.00 893.96,401.23 897.42,406.52 C898.54,408.23 901.15,409.57 906.26,411.06 C925.97,416.83 927.52,417.45 931.58,421.19 C943.66,432.30 938.20,452.60 921.83,457.46 ZM 316.00 456.57 C311.46,458.91 296.43,459.52 289.71,457.63 C284.30,456.11 278.33,451.71 275.77,447.34 C273.05,442.69 272.04,432.21 272.02,408.25 L 272.00 386.00 L 286.91 386.00 L 287.20 412.58 L 287.50 439.16 L 291.11 442.47 C297.46,448.28 307.79,447.90 312.40,441.68 C314.39,439.01 314.52,437.43 314.81,412.43 L 315.12 386.00 L 330.00 386.00 L 329.97 404.75 C329.93,426.88 328.66,442.83 326.63,446.71 C324.77,450.28 320.46,454.28 316.00,456.57 ZM 595.00 457.74 C595.00,458.48 580.04,457.87 579.57,457.11 C578.94,456.10 574.22,443.09 563.01,411.50 C558.72,399.40 554.89,388.71 554.50,387.75 C553.86,386.17 554.56,386.00 561.76,386.00 L 569.73 386.00 L 575.52 403.25 C584.62,430.41 587.19,437.22 588.00,436.33 C588.41,435.87 592.44,424.36 596.96,410.75 L 605.17 386.00 L 612.58 386.00 C616.66,386.00 620.00,386.29 620.00,386.64 C620.00,387.28 610.97,413.01 600.56,441.99 C597.50,450.51 595.00,457.60 595.00,457.74 ZM 1189.00 441.99 L 1188.50 457.50 L 1181.96 457.79 C1178.36,457.95 1175.10,457.76 1174.71,457.37 C1174.32,456.99 1174.00,449.93 1174.00,441.69 L 1174.00 426.72 L 1168.37 417.61 C1165.28,412.60 1161.97,407.38 1161.03,406.00 C1157.82,401.32 1149.00,387.02 1149.00,386.51 C1149.00,386.23 1152.71,386.01 1157.25,386.02 L 1165.50 386.05 L 1173.48 399.52 C1177.87,406.94 1181.76,413.00 1182.14,413.00 C1182.51,413.00 1186.33,406.92 1190.63,399.50 L 1198.44 386.00 L 1206.77 386.00 C1213.42,386.00 1214.94,386.27 1214.30,387.32 C1213.86,388.05 1208.10,397.16 1201.50,407.56 L 1189.50 426.47 ZM 1086.00 398.00 L 1086.00 458.00 L 1072.00 458.00 L 1072.00 398.00 L 1061.50 398.00 C1053.80,398.00 1050.98,397.67 1050.93,396.75 C1050.89,396.06 1050.78,393.48 1050.68,391.00 L 1050.51 386.50 L 1079.31 386.23 L 1108.11 385.97 L 1107.89 391.98 L 1107.67 398.00 ZM 647.27 529.79 C640.92,533.30 634.54,533.60 628.50,530.68 C622.33,527.70 619.52,524.73 617.53,519.10 C614.49,510.47 616.30,499.75 621.82,493.77 C628.00,487.07 641.72,486.00 648.73,491.67 C654.49,496.32 656.29,500.17 656.77,508.89 C657.15,515.79 656.92,517.01 654.30,522.00 C652.21,525.96 650.25,528.14 647.27,529.79 ZM 991.77 530.45 C989.26,531.50 984.82,532.00 978.03,532.00 L 968.00 532.00 L 968.00 489.00 L 979.85 489.00 C990.49,489.00 992.05,489.23 995.05,491.25 C1000.11,494.67 1002.25,499.14 1002.78,507.48 C1003.57,519.74 1000.10,526.97 991.77,530.45 ZM 1307.00 635.11 C1308.45,635.51 1305.94,635.82 1301.00,635.84 C1295.36,635.86 1293.21,635.59 1294.61,635.02 C1295.77,634.55 1297.03,633.35 1297.42,632.36 C1297.80,631.36 1299.64,620.70 1301.51,608.65 C1303.38,596.61 1305.12,586.54 1305.39,586.28 C1306.66,585.01 1308.83,588.56 1316.56,604.54 C1321.16,614.05 1325.31,622.08 1325.78,622.36 C1326.25,622.65 1330.64,614.78 1335.54,604.86 C1343.98,587.79 1345.52,585.19 1346.58,586.25 C1346.83,586.50 1348.57,596.67 1350.45,608.84 C1352.33,621.02 1354.18,631.48 1354.56,632.09 C1354.93,632.70 1356.65,633.81 1358.37,634.56 C1361.35,635.86 1361.12,635.92 1353.41,635.96 L 1345.32 636.00 L 1343.54 621.25 C1342.56,613.14 1341.52,606.09 1341.22,605.58 C1340.92,605.08 1337.13,611.75 1332.80,620.40 C1328.08,629.82 1324.43,635.98 1323.71,635.74 C1323.05,635.52 1319.16,628.71 1315.07,620.61 C1310.47,611.50 1307.37,606.39 1306.93,607.20 C1305.95,609.00 1303.70,628.95 1304.14,631.96 C1304.38,633.57 1305.36,634.66 1307.00,635.11 ZM 988.12 633.00 C993.13,634.18 994.17,634.14 999.61,632.52 C1004.94,630.94 1009.22,627.22 1010.94,622.68 C1011.52,621.14 1012.00,616.84 1012.00,613.15 C1012.00,598.83 1003.63,591.02 988.25,591.01 L 983.00 591.00 L 983.02 610.25 C983.02,620.84 983.42,630.11 983.89,630.85 C984.36,631.59 986.26,632.56 988.12,633.00 ZM 509.03 386.00 L 508.50 457.50 L 501.96 457.79 C498.36,457.95 495.10,457.76 494.71,457.37 C494.32,456.99 494.00,440.77 494.00,421.33 L 494.00 386.00 ZM 1003.00 386.00 L 1003.00 458.00 L 989.00 458.00 L 989.00 386.00 ZM 671.08 513.00 L 670.50 531.50 L 667.75 531.82 L 665.00 532.13 L 665.00 489.00 L 677.93 489.00 C692.58,489.00 695.26,489.67 697.45,493.91 C700.96,500.70 698.53,508.29 691.98,511.01 L 688.90 512.28 L 691.31 514.89 C695.17,519.06 702.07,530.08 701.45,531.08 C701.14,531.59 699.80,532.00 698.48,532.00 C696.57,532.00 694.90,530.24 690.38,523.45 C687.26,518.75 683.89,514.48 682.91,513.95 C681.93,513.43 678.87,513.00 676.10,513.00 ZM 819.00 523.00 C818.55,530.60 818.28,531.53 816.46,531.79 C815.34,531.95 814.10,531.77 813.71,531.38 C813.32,530.99 813.00,521.29 813.00,509.83 L 813.00 489.00 L 839.20 489.00 L 842.60 492.40 C845.49,495.29 846.00,496.50 846.00,500.45 C846.00,505.81 843.96,510.38 840.74,512.22 C839.51,512.92 834.22,513.72 829.00,514.00 L 819.50 514.50 ZM 485.82 530.25 C485.33,531.21 483.83,532.00 482.49,532.00 C480.41,532.00 479.84,531.24 478.57,526.75 C475.66,516.48 469.00,490.85 469.00,489.93 C469.00,489.42 470.24,489.00 471.76,489.00 C474.40,489.00 474.60,489.36 476.36,497.25 C480.99,518.00 482.34,523.06 483.01,522.31 C483.41,521.86 485.42,515.20 487.49,507.50 C491.31,493.25 492.11,489.96 493.95,489.21 C494.50,488.99 495.15,488.99 496.00,489.00 C496.13,489.00 496.26,489.00 496.40,489.00 C499.71,489.00 499.92,489.22 501.36,494.25 C503.77,502.69 506.89,514.16 508.05,518.85 C508.65,521.24 509.31,523.02 509.53,522.80 C509.75,522.58 511.73,515.06 513.92,506.08 C516.11,497.10 518.11,489.56 518.36,489.30 C518.61,489.05 519.92,489.00 521.26,489.17 L 523.70 489.50 L 519.34 505.50 C513.23,527.94 512.37,531.57 510.77,531.93 C510.46,532.00 510.13,531.95 509.72,531.88 C509.56,531.86 509.40,531.83 509.22,531.81 C508.81,531.77 508.47,531.73 508.15,531.62 C506.24,530.96 505.30,527.47 497.95,500.75 C497.39,498.69 496.57,497.00 496.13,497.00 C495.70,497.00 493.40,504.09 491.03,512.75 C488.66,521.41 486.32,529.29 485.82,530.25 ZM 768.00 514.80 L 768.00 532.00 L 763.00 532.00 L 763.00 489.00 L 771.54 489.00 L 777.38 506.60 C780.58,516.27 783.54,523.81 783.94,523.35 C784.35,522.88 786.37,517.55 788.43,511.50 C794.68,493.22 795.69,489.70 797.62,489.08 C798.08,488.93 798.59,488.95 799.25,488.98 C799.52,488.99 799.82,489.00 800.15,489.00 L 804.04 489.00 L 803.77 510.25 C803.50,531.43 803.49,531.50 801.25,531.82 L 799.00 532.14 L 799.00 515.57 C799.00,506.18 798.60,499.00 798.08,499.00 C797.58,499.00 795.94,502.71 794.44,507.25 C792.95,511.79 790.39,519.24 788.75,523.81 C786.00,531.47 785.57,532.09 783.24,531.81 C780.92,531.53 780.26,530.17 775.30,515.50 C772.32,506.70 769.46,499.07 768.94,498.55 C768.35,497.96 768.00,504.05 768.00,514.80 ZM 631.50 526.64 C637.86,529.58 646.86,525.97 649.61,519.38 C653.26,510.65 649.98,497.14 643.56,494.46 C632.23,489.73 622.01,496.94 622.00,509.68 C622.00,518.13 625.11,523.69 631.50,526.64 ZM 1031.47 525.50 C1029.60,530.52 1028.81,531.55 1026.62,531.82 C1024.96,532.02 1024.00,531.65 1024.00,530.82 C1024.00,530.09 1027.48,520.39 1031.73,509.25 L 1039.46 489.00 L 1042.74 489.00 C1042.97,489.00 1043.19,488.99 1043.39,488.99 C1043.91,488.97 1044.34,488.96 1044.74,489.07 C1046.70,489.58 1047.92,492.94 1056.02,512.79 C1059.90,522.30 1062.80,530.51 1062.48,531.04 C1062.15,531.57 1060.83,532.00 1059.55,532.00 C1057.62,532.00 1056.78,530.92 1054.71,525.75 L 1052.21 519.50 L 1033.70 519.50 ZM 973.75 526.44 C974.16,526.86 977.98,527.01 982.24,526.77 C990.81,526.29 993.25,524.92 995.64,519.28 C997.40,515.11 997.39,504.86 995.61,500.60 C993.36,495.23 990.70,494.00 981.28,494.00 L 973.00 494.00 L 973.00 509.83 C973.00,518.54 973.34,526.01 973.75,526.44 ZM 530.54 525.50 C528.66,530.56 527.90,531.55 525.66,531.82 C523.96,532.02 523.01,531.66 523.03,530.82 C523.04,530.09 526.53,520.50 530.79,509.50 L 538.53 489.50 L 542.01 489.22 L 545.50 488.94 L 553.79 509.72 C558.35,521.15 562.07,530.84 562.04,531.25 C561.97,532.49 557.32,532.09 556.23,530.75 C555.68,530.06 554.39,527.12 553.37,524.22 L 551.51 518.93 L 542.14 519.22 L 532.77 519.50 ZM 929.00 516.50 L 929.00 532.00 L 924.00 532.00 L 924.00 489.00 L 927.25 489.03 C930.34,489.05 931.03,489.86 941.00,505.06 L 951.50 521.06 L 952.05 489.00 L 958.04 489.00 L 957.50 531.50 L 954.91 531.80 C952.58,532.07 951.28,530.55 941.94,516.55 C936.23,508.00 930.98,501.00 930.28,501.00 C929.30,501.00 929.00,504.58 929.00,516.50 ZM 453.72 531.38 C447.62,533.44 444.80,533.38 438.01,531.04 C428.55,527.78 424.01,520.78 424.02,509.50 C424.02,503.46 427.56,495.28 431.51,492.17 C435.33,489.16 441.44,487.72 448.25,488.21 C454.96,488.70 458.55,490.90 461.50,496.36 C463.25,499.58 463.31,500.17 462.00,501.01 C459.48,502.62 458.30,502.13 456.98,498.95 C455.35,495.03 451.34,493.00 445.20,493.00 C439.27,493.00 434.33,495.93 431.70,501.02 C429.19,505.85 429.72,516.80 432.64,520.72 C437.50,527.24 447.31,529.33 454.21,525.32 C456.99,523.70 457.55,522.75 457.81,519.20 L 458.11 515.00 L 452.06 515.00 C446.26,515.00 446.00,514.89 446.00,512.50 C446.00,510.02 446.07,510.00 455.00,510.00 L 464.00 510.00 L 464.00 517.93 C464.00,525.45 463.85,525.97 461.25,527.81 C459.74,528.89 456.35,530.49 453.72,531.38 ZM 747.00 636.00 C745.51,636.48 751.21,636.84 761.06,636.90 L 777.63 637.00 L 760.03 619.50 C750.35,609.88 742.08,602.00 741.65,602.00 C740.61,602.00 742.02,631.03 743.17,633.25 C743.66,634.21 745.29,635.04 746.79,635.10 L 749.50 635.20 ZM 787.00 398.00 L 787.00 416.00 L 798.05 416.00 C812.77,416.00 816.00,414.38 816.00,407.00 C816.00,399.62 812.77,398.00 798.05,398.00 ZM 1224.50 636.00 C1224.10,636.65 1229.03,636.94 1238.69,636.83 C1246.84,636.74 1251.80,636.49 1249.73,636.27 C1247.64,636.05 1246.22,635.45 1246.56,634.91 C1246.88,634.38 1245.95,630.81 1244.49,626.97 L 1241.83 620.00 L 1225.03 620.00 L 1223.42 623.75 C1222.54,625.81 1221.57,629.19 1221.27,631.25 C1220.79,634.61 1220.97,635.00 1222.93,635.00 C1224.13,635.00 1224.84,635.45 1224.50,636.00 ZM 526.43 636.11 C526.12,636.62 532.71,636.92 541.69,636.82 C550.39,636.72 555.39,636.47 552.80,636.27 C549.19,635.98 548.23,635.56 548.66,634.44 C548.97,633.64 547.98,630.06 546.46,626.49 L 543.70 620.00 L 527.27 620.00 L 525.13 625.13 C522.47,631.55 522.43,634.04 524.99,634.71 C526.08,634.99 526.73,635.63 526.43,636.11 ZM 593.82 529.25 C593.51,531.43 593.11,531.51 580.95,531.78 C574.04,531.93 568.08,531.74 567.70,531.36 C567.31,530.98 567.00,521.29 567.00,509.83 L 567.00 489.00 L 573.00 489.00 L 573.00 527.00 L 583.57 527.00 C593.96,527.00 594.13,527.04 593.82,529.25 ZM 457.50 636.00 C457.10,636.65 461.37,636.94 469.69,636.84 C476.74,636.75 480.92,636.49 479.00,636.26 C474.12,635.68 469.94,632.18 463.79,623.50 C458.83,616.51 458.27,616.05 454.75,616.02 L 451.00 616.00 L 451.00 623.93 C451.00,632.39 452.21,635.00 456.13,635.00 C457.22,635.00 457.84,635.45 457.50,636.00 ZM 1080.50 636.00 C1079.25,636.54 1083.39,636.85 1091.50,636.83 C1100.00,636.81 1103.35,636.52 1101.18,636.01 C1097.00,635.02 1094.11,632.36 1087.32,623.25 C1082.43,616.69 1081.59,616.00 1078.46,616.00 L 1075.00 616.00 L 1075.00 624.30 C1075.00,633.27 1075.78,634.96 1079.95,635.07 C1082.27,635.13 1082.32,635.22 1080.50,636.00 ZM 819.00 494.00 L 819.00 509.00 L 826.57 509.00 C837.13,509.00 839.96,507.33 839.98,501.08 C840.01,495.20 837.96,494.00 827.85,494.00 ZM 376.57 631.43 C378.34,633.19 384.17,633.52 386.99,632.01 C390.99,629.86 391.50,622.53 388.08,616.15 C386.61,613.40 381.93,611.00 378.05,611.00 L 375.00 611.00 L 375.00 620.43 C375.00,627.67 375.37,630.22 376.57,631.43 ZM 671.00 494.00 L 671.00 508.20 L 679.90 507.85 C690.24,507.44 693.00,505.88 693.00,500.42 C693.00,494.96 691.11,494.00 680.43,494.00 ZM 451.67 612.33 C452.91,613.58 459.55,613.01 461.75,611.46 C464.84,609.30 466.36,603.04 465.01,598.04 C463.68,593.09 460.79,591.00 455.28,591.00 L 451.00 591.00 L 451.00 601.33 C451.00,607.02 451.30,611.97 451.67,612.33 ZM 1075.67 612.33 C1076.78,613.45 1083.40,613.02 1085.09,611.72 C1087.64,609.76 1089.00,606.42 1089.00,602.11 C1089.00,594.47 1085.71,591.00 1078.45,591.00 L 1075.00 591.00 L 1075.00 601.33 C1075.00,607.02 1075.30,611.97 1075.67,612.33 ZM 608.04 489.00 L 607.50 531.50 L 604.75 531.82 L 602.00 532.13 L 602.00 489.00 ZM 913.77 510.25 C913.51,530.78 913.43,531.51 911.46,531.79 C910.34,531.95 909.10,531.77 908.71,531.38 C908.32,530.99 908.00,521.29 908.00,509.83 L 908.00 489.00 L 914.04 489.00 ZM 1017.77 510.25 C1017.51,530.78 1017.43,531.51 1015.46,531.79 C1014.34,531.95 1013.10,531.77 1012.71,531.38 C1012.32,530.99 1012.00,521.29 1012.00,509.83 L 1012.00 489.00 L 1018.04 489.00 ZM 375.67 607.33 C376.94,608.60 382.86,607.99 384.43,606.43 C386.52,604.34 387.37,600.62 386.53,597.25 C385.44,592.89 383.12,591.00 378.85,591.00 L 375.00 591.00 L 375.00 598.83 C375.00,603.14 375.30,606.97 375.67,607.33 ZM 880.66 515.43 C877.40,518.70 873.10,518.80 870.17,515.69 C865.50,510.71 868.68,503.60 875.56,503.60 C879.68,503.60 881.73,505.38 882.59,509.70 C883.10,512.26 882.74,513.36 880.66,515.43 ZM 734.96 517.02 C729.96,519.70 724.00,516.06 724.00,510.34 C724.00,503.20 734.24,500.69 737.51,507.03 C739.23,510.34 737.93,515.43 734.96,517.02 ZM 1036.25 512.75 C1035.91,513.68 1037.63,514.00 1042.89,514.00 C1046.80,514.00 1050.00,513.80 1050.00,513.56 C1050.00,513.32 1048.65,509.62 1047.00,505.34 C1045.35,501.05 1044.00,496.97 1044.00,496.27 C1044.00,492.96 1042.24,495.76 1039.60,503.25 C1038.01,507.79 1036.50,512.06 1036.25,512.75 ZM 535.34 512.75 C534.96,513.68 536.67,514.00 542.02,514.00 C547.36,514.00 549.09,513.68 548.75,512.75 C548.50,512.06 546.99,507.79 545.40,503.25 C543.80,498.72 542.26,495.00 541.96,495.00 C541.66,495.00 540.16,498.71 538.63,503.25 C537.10,507.79 535.62,512.06 535.34,512.75 ZM 0.00 0.00 L 0.09 587.50 L 2.44 583.00 C3.73,580.53 5.80,577.60 7.04,576.50 L 9.30 574.50 L 8.43 577.50 C7.30,581.36 7.31,589.96 8.43,592.37 C9.15,593.90 8.97,594.13 7.40,593.66 C6.36,593.35 4.26,592.80 2.75,592.44 L 0.00 591.78 ZM 529.58 616.12 C530.29,617.28 540.72,617.26 541.44,616.10 C542.01,615.18 537.46,602.13 536.07,600.70 C535.15,599.74 528.79,614.85 529.58,616.12 ZM 1227.54 616.06 C1228.27,617.25 1238.70,617.30 1239.42,616.12 C1240.18,614.89 1233.87,599.71 1233.00,600.70 C1231.53,602.37 1226.98,615.17 1227.54,616.06 ZM 1473.48 584.67 C1472.09,587.45 1469.99,590.58 1468.82,591.62 C1466.70,593.49 1466.69,593.48 1467.43,591.00 C1468.88,586.09 1469.22,578.29 1468.08,576.14 C1467.08,574.29 1467.20,574.00 1468.90,574.00 C1472.44,574.00 1476.00,575.89 1476.00,577.78 C1476.00,578.78 1474.86,581.89 1473.48,584.67 ZM 1484.43 585.60 C1483.01,588.30 1480.93,591.40 1479.80,592.50 L 1477.74 594.50 L 1478.46 592.00 C1480.97,583.18 1481.22,580.15 1479.69,577.09 C1478.25,574.19 1478.27,574.00 1480.01,574.00 C1481.03,574.00 1483.02,574.44 1484.43,574.98 C1487.77,576.24 1487.77,579.24 1484.43,585.60 ZM 20.28 593.39 C19.56,594.11 19.47,594.10 15.25,592.88 C12.70,592.14 12.00,591.40 12.00,589.44 C12.00,586.22 16.12,578.08 19.06,575.50 L 21.34 573.50 L 20.58 575.50 C20.17,576.60 19.33,579.81 18.73,582.64 C17.80,586.99 17.89,588.18 19.26,590.28 C20.16,591.65 20.62,593.05 20.28,593.39 ZM 379.41 587.23 C377.57,587.18 375.29,587.14 372.75,587.12 C368.33,587.08 364.41,587.19 362.12,587.39 C364.20,587.15 367.72,587.01 372.25,587.02 C374.93,587.03 377.31,587.09 379.41,587.23 ZM 784.56 588.96 C785.35,588.68 785.92,588.29 785.99,587.95 C786.00,587.97 786.00,587.98 786.00,588.00 C786.00,588.46 785.39,588.84 784.56,588.96 Z" fill="rgb(192,24,31)"/>
<path d="M 411.00 407.26 C412.27,409.34 413.49,411.32 414.51,413.00 C414.92,413.67 415.31,414.31 415.69,414.93 C423.06,427.02 424.76,429.80 425.48,429.57 C425.74,429.49 425.87,429.03 426.09,428.48 C426.29,427.96 426.48,425.38 426.63,421.62 L 426.50 433.50 L 424.63 430.00 C423.23,427.39 417.70,418.18 411.00,407.26 ZM 426.98 390.63 L 427.00 386.00 L 427.04 386.00 ZM 403.26 394.75 L 397.82 386.00 L 403.27 394.75 C404.52,396.76 406.13,399.37 407.82,402.10 C406.32,399.68 404.80,397.21 403.26,394.75 Z" fill="rgb(239,168,169)"/>
<path d="M 0.00 614.39 L 0.00 591.78 L 2.75 592.44 C4.26,592.80 6.36,593.35 7.40,593.66 C8.97,594.13 9.15,593.90 8.43,592.37 C7.31,589.96 7.30,581.36 8.43,577.50 L 9.30 574.50 L 7.04 576.50 C5.80,577.60 3.73,580.53 2.44,583.00 L 0.09 587.50 L 0.05 293.75 L 0.00 0.00 L 180.05 0.00 L 360.10 0.00 L 359.80 5.25 L 359.50 10.50 L 315.75 10.76 L 272.00 11.02 L 272.00 15.01 L 272.00 19.00 L 743.50 19.00 L 1215.00 19.00 L 1215.00 15.00 L 1215.00 11.00 L 1172.00 11.00 L 1129.00 11.00 L 1129.00 5.50 L 1129.00 0.00 L 1314.50 0.00 L 1500.00 0.00 L 1500.00 318.50 L 1500.00 637.00 L 1458.35 637.00 L 1416.70 637.00 L 1420.01 634.75 C1425.46,631.04 1427.51,627.49 1427.43,621.90 C1427.33,615.43 1425.29,612.74 1415.75,606.50 C1407.81,601.31 1405.74,598.69 1406.69,595.06 C1407.78,590.92 1416.41,588.54 1421.15,591.08 C1422.26,591.67 1423.80,593.58 1424.58,595.33 L 1425.99 598.50 L 1425.74 593.00 L 1425.50 587.50 L 1418.52 587.20 C1409.73,586.82 1407.86,587.30 1403.55,591.09 C1399.90,594.30 1398.26,599.09 1399.49,602.98 C1400.63,606.56 1405.83,611.75 1412.09,615.56 C1420.98,620.95 1422.45,625.70 1416.95,631.20 C1414.34,633.82 1413.36,634.18 1410.09,633.74 C1404.92,633.05 1401.01,630.29 1400.32,626.85 C1399.37,622.08 1398.00,623.66 1398.00,629.53 C1398.00,634.33 1398.30,635.18 1400.25,635.97 C1401.63,636.52 1375.17,636.90 1332.19,636.94 C1285.56,636.98 1262.09,636.66 1262.50,636.00 C1262.84,635.45 1262.40,635.00 1261.51,635.00 C1258.18,635.00 1255.17,629.90 1246.62,609.81 C1237.75,588.97 1235.70,584.97 1234.52,586.15 C1234.16,586.50 1229.48,597.08 1224.10,609.65 C1215.33,630.16 1213.99,632.67 1211.11,634.15 C1209.11,635.17 1208.39,636.00 1209.20,636.32 C1209.91,636.61 1202.52,636.88 1192.77,636.92 L 1175.05 637.00 L 1176.02 634.43 C1177.31,631.06 1177.29,625.70 1176.00,626.50 C1175.45,626.84 1175.00,627.96 1175.00,628.98 C1175.00,632.74 1163.35,634.19 1159.41,630.93 C1158.39,630.08 1158.00,627.30 1158.00,620.88 L 1158.00 612.00 L 1163.42 612.00 C1170.12,612.00 1172.00,612.68 1172.00,615.11 C1172.00,616.15 1172.45,617.00 1173.00,617.00 C1173.55,617.00 1174.00,614.83 1174.00,612.18 L 1174.00 607.36 L 1167.25 608.18 C1163.54,608.63 1159.94,608.79 1159.25,608.53 C1158.38,608.21 1158.00,605.42 1158.00,599.41 L 1158.00 590.77 L 1164.75 591.49 C1172.35,592.29 1173.00,592.53 1173.00,594.56 C1173.00,595.35 1173.45,596.00 1174.00,596.00 C1174.55,596.00 1175.00,593.92 1175.00,591.38 C1175.00,587.08 1174.85,586.81 1172.75,587.37 C1171.51,587.70 1164.96,587.98 1158.19,587.99 L 1145.89 588.00 L 1147.44 590.22 C1148.71,592.03 1148.99,595.61 1148.94,609.47 C1148.87,630.75 1148.32,634.38 1145.07,634.84 C1143.23,635.10 1143.00,635.39 1144.09,636.08 C1144.95,636.62 1138.67,636.97 1128.00,636.97 C1117.97,636.97 1111.07,636.61 1111.84,636.12 C1112.84,635.48 1112.54,635.10 1110.67,634.63 C1107.22,633.77 1102.82,629.89 1095.34,621.13 L 1089.01 613.71 L 1092.94 609.44 C1097.96,604.01 1099.07,599.03 1096.40,594.07 C1093.51,588.72 1091.21,588.03 1076.06,588.01 C1065.05,588.00 1062.93,588.23 1064.33,589.25 C1065.87,590.38 1066.01,592.67 1065.77,611.97 L 1065.50 633.44 L 1063.11 634.63 L 1060.72 635.82 L 1063.11 636.28 C1064.42,636.52 1050.43,636.76 1032.00,636.81 L 998.50 636.89 L 1004.12 635.09 C1016.10,631.26 1021.52,623.73 1021.47,611.00 C1021.43,599.58 1017.61,593.49 1008.30,590.01 C1003.74,588.30 1000.50,588.00 986.91,588.00 L 970.89 588.00 L 972.44 590.22 C973.73,592.05 973.98,595.71 973.90,610.97 C973.79,632.11 973.43,634.30 969.96,634.98 C968.61,635.25 970.88,635.73 975.00,636.05 C979.12,636.38 955.72,636.69 923.00,636.74 C875.21,636.83 864.29,636.61 867.50,635.64 L 871.50 634.44 L 871.78 624.40 C872.06,614.52 872.11,614.35 874.78,613.29 C876.98,612.42 875.38,612.21 866.50,612.19 C857.50,612.16 856.05,612.35 858.50,613.23 C860.15,613.82 861.83,614.79 862.23,615.40 C862.64,616.01 862.98,620.00 862.98,624.27 C863.00,631.79 862.91,632.08 860.32,633.07 C857.30,634.22 849.78,632.97 845.10,630.55 C841.19,628.53 836.44,622.86 835.00,618.50 C834.32,616.43 833.95,611.62 834.16,607.47 C834.60,598.76 836.41,595.66 843.06,592.18 C851.37,587.83 865.91,590.65 868.34,597.09 C870.05,601.61 871.00,600.55 871.00,594.14 L 871.00 588.28 L 865.75 587.65 C862.86,587.30 856.67,587.02 852.00,587.02 C845.14,587.02 842.54,587.48 838.50,589.39 C828.76,594.00 824.00,601.51 824.00,612.26 C824.00,623.35 829.91,631.21 841.20,635.11 L 846.50 636.93 L 813.22 636.97 L 779.94 637.00 L 780.53 615.25 C781.22,589.94 781.35,589.00 784.02,589.00 C785.11,589.00 786.00,588.55 786.00,588.00 C786.00,587.41 782.27,587.00 776.80,587.00 C771.21,587.00 767.97,587.36 768.55,587.92 C769.07,588.42 770.62,588.98 772.00,589.17 L 774.50 589.50 L 775.34 605.33 C775.80,614.04 775.89,621.44 775.55,621.78 C775.21,622.13 766.95,614.44 757.20,604.70 C747.46,594.97 738.98,587.00 738.36,587.00 C736.49,587.00 736.00,592.41 736.00,612.92 C736.00,633.52 735.72,634.93 731.55,635.07 C729.52,635.14 729.52,635.15 731.50,636.00 C732.70,636.51 724.65,636.86 711.50,636.86 C698.35,636.86 690.30,636.51 691.50,636.00 C693.30,635.23 693.24,635.13 690.87,635.07 C689.43,635.03 687.80,634.44 687.26,633.75 C685.92,632.06 685.06,610.72 685.86,599.00 C686.46,590.14 686.65,589.48 688.75,589.18 C689.99,589.00 691.00,588.44 691.00,587.93 C691.00,587.42 686.50,587.00 681.00,587.00 C675.50,587.00 671.00,587.42 671.00,587.93 C671.00,588.44 672.01,589.00 673.25,589.18 L 675.50 589.50 L 675.50 612.00 L 675.50 634.50 L 673.09 634.84 C671.23,635.10 671.00,635.39 672.09,636.08 C672.94,636.61 662.96,636.97 647.00,636.97 C629.53,636.97 621.01,636.64 622.00,636.00 C623.22,635.21 623.09,635.03 621.32,635.02 C616.37,634.98 616.00,633.36 616.00,611.93 L 616.00 592.00 L 622.42 592.00 C629.73,592.00 632.00,592.62 632.00,594.61 C632.00,595.37 632.45,596.00 633.00,596.00 C633.55,596.00 634.00,594.09 634.00,591.75 L 634.00 587.50 L 611.77 587.62 L 589.54 587.74 L 588.75 591.52 C587.80,596.10 588.51,597.14 590.58,594.19 C591.92,592.27 593.03,592.00 599.56,592.00 L 607.00 592.00 L 607.00 611.57 C607.00,631.20 606.42,635.00 603.41,635.00 C602.57,635.00 602.16,635.45 602.50,636.00 C602.90,636.66 596.11,636.97 582.81,636.92 C571.64,636.88 563.09,636.61 563.80,636.32 C564.60,636.00 563.84,635.16 561.81,634.15 C558.81,632.65 557.63,630.43 548.56,609.25 C543.09,596.46 538.12,586.00 537.52,586.00 C536.93,586.00 532.02,596.32 526.61,608.94 C521.20,621.56 516.01,632.59 515.06,633.44 C514.12,634.30 512.48,635.03 511.42,635.07 C509.58,635.14 509.58,635.18 511.50,636.00 C512.75,636.54 508.46,636.88 500.00,636.91 C492.20,636.95 487.07,636.61 487.85,636.12 C488.85,635.48 488.57,635.11 486.76,634.65 C483.15,633.75 479.56,630.59 471.94,621.65 L 465.10 613.62 L 469.02 609.37 C471.17,607.03 473.22,603.96 473.58,602.55 C474.58,598.56 473.22,593.55 470.41,590.91 C467.99,588.64 467.04,588.48 453.73,588.17 C440.78,587.87 439.74,587.98 440.98,589.47 C442.68,591.52 443.46,612.72 442.31,625.50 C441.54,634.07 441.38,634.52 439.00,634.87 C436.68,635.22 436.64,635.31 438.50,636.05 C439.60,636.50 427.90,636.87 412.50,636.89 C384.85,636.91 384.56,636.89 389.48,635.21 C392.97,634.01 395.13,632.49 396.73,630.10 C401.08,623.60 398.79,614.01 392.04,610.52 C388.46,608.67 388.31,607.93 391.01,605.49 C393.92,602.85 395.41,597.16 394.08,593.70 C392.21,588.81 386.45,587.05 372.25,587.02 C364.74,587.01 360.00,587.39 360.00,588.00 C360.00,588.55 361.11,589.00 362.46,589.00 C363.88,589.00 365.37,589.83 365.96,590.93 C367.08,593.02 367.22,626.37 366.13,631.50 C365.68,633.61 364.82,634.60 363.23,634.82 C361.99,635.00 361.23,635.56 361.54,636.07 C361.89,636.63 354.01,637.00 341.69,637.00 L 321.27 637.00 L 322.09 632.75 C323.16,627.23 323.16,627.00 322.12,627.00 C321.63,627.00 321.00,627.89 320.71,628.99 C320.01,631.69 315.43,633.28 310.06,632.69 C303.97,632.02 303.00,630.33 303.00,620.31 L 303.00 612.00 L 308.81 612.00 C314.61,612.00 317.37,613.17 318.23,616.00 C318.48,616.83 319.01,615.32 319.42,612.66 C319.82,610.00 320.00,607.69 319.83,607.54 C319.65,607.39 316.58,607.63 313.00,608.08 C303.02,609.35 303.00,609.32 303.00,599.29 L 303.00 590.72 L 308.25 591.35 C311.14,591.70 314.48,591.99 315.68,591.99 C317.06,592.00 318.13,592.83 318.58,594.25 C319.27,596.43 319.32,596.44 320.08,594.50 C320.51,593.40 320.89,591.21 320.93,589.64 C320.98,587.43 320.64,586.92 319.42,587.39 C318.55,587.73 311.93,588.00 304.72,588.00 C294.52,588.00 291.87,588.27 292.80,589.20 C294.07,590.47 294.60,630.27 293.39,633.42 C293.06,634.29 291.82,635.09 290.64,635.19 C289.46,635.30 292.77,635.66 298.00,636.00 C304.19,636.40 297.53,636.68 278.89,636.81 L 250.28 637.00 L 251.34 633.03 C252.64,628.16 251.70,626.92 249.11,630.11 C247.40,632.22 246.38,632.49 240.45,632.43 C230.91,632.32 231.00,632.53 231.00,610.39 C231.00,600.37 231.27,591.45 231.61,590.58 C231.94,589.71 233.29,589.00 234.61,589.00 C235.92,589.00 237.00,588.55 237.00,588.00 C237.00,587.40 232.83,587.00 226.50,587.00 C220.66,587.00 216.00,587.41 216.00,587.93 C216.00,588.45 217.24,589.01 218.75,589.18 L 221.50 589.50 L 221.77 610.28 C222.06,632.20 221.62,634.85 217.71,635.20 C216.50,635.30 220.23,635.67 226.00,636.00 C232.97,636.40 226.34,636.67 206.27,636.80 L 176.05 637.00 L 177.02 634.43 C178.27,631.16 178.32,625.26 177.10,626.55 C176.60,627.07 176.04,628.37 175.85,629.44 C175.20,633.01 164.20,634.07 160.41,630.93 C159.39,630.08 159.00,627.30 159.00,620.88 L 159.00 612.00 L 164.42 612.00 C171.12,612.00 173.00,612.68 173.00,615.11 C173.00,616.15 173.45,617.00 174.00,617.00 C174.55,617.00 175.00,614.84 175.00,612.19 L 175.00 607.38 L 167.83 608.15 C163.89,608.57 160.29,608.68 159.83,608.40 C159.38,608.11 159.00,604.05 159.00,599.36 L 159.00 590.84 L 165.75 591.54 C173.40,592.34 174.00,592.56 174.00,594.56 C174.00,595.35 174.45,596.00 175.00,596.00 C175.55,596.00 176.00,593.93 176.00,591.39 C176.00,587.60 175.72,586.89 174.42,587.39 C173.55,587.73 167.00,588.00 159.86,588.00 L 146.89 588.00 L 148.44 590.22 C149.71,592.02 149.98,595.48 149.91,608.47 C149.86,617.29 149.53,626.75 149.16,629.50 C148.59,633.80 148.16,634.55 146.09,634.84 C144.23,635.10 144.00,635.39 145.09,636.08 C145.94,636.61 137.15,636.93 123.00,636.87 C110.07,636.81 100.27,636.57 101.20,636.32 C103.01,635.84 103.49,634.75 104.56,628.75 C105.36,624.24 104.13,623.91 101.79,628.02 C99.77,631.57 96.50,633.00 90.40,633.00 C82.10,633.00 74.82,628.39 70.81,620.60 C68.04,615.20 68.48,601.51 71.56,597.38 C75.25,592.45 78.37,590.82 85.13,590.31 C94.34,589.61 98.94,591.39 101.63,596.71 L 103.75 600.92 L 104.44 594.85 C104.81,591.52 104.88,588.55 104.59,588.25 C103.41,587.08 80.37,586.80 76.29,587.91 C70.48,589.49 64.10,594.64 61.30,600.00 C59.31,603.82 58.99,605.71 59.23,612.59 C59.46,619.59 59.88,621.22 62.33,624.76 C65.56,629.42 71.66,633.78 77.50,635.61 C80.86,636.66 74.95,636.88 40.75,636.93 L 0.00 637.00 L 0.00 614.39 ZM 1307.00 635.11 C1305.36,634.66 1304.38,633.57 1304.14,631.96 C1303.70,628.95 1305.95,609.00 1306.93,607.20 C1307.37,606.39 1310.47,611.50 1315.07,620.61 C1319.16,628.71 1323.05,635.52 1323.71,635.74 C1324.43,635.98 1328.08,629.82 1332.80,620.40 C1337.13,611.75 1340.92,605.08 1341.22,605.58 C1341.52,606.09 1342.56,613.14 1343.54,621.25 L 1345.32 636.00 L 1353.41 635.96 C1361.12,635.92 1361.35,635.86 1358.37,634.56 C1356.65,633.81 1354.93,632.70 1354.56,632.09 C1354.18,631.48 1352.33,621.02 1350.45,608.84 C1348.57,596.67 1346.83,586.50 1346.58,586.25 C1345.52,585.19 1343.98,587.79 1335.54,604.86 C1330.64,614.78 1326.25,622.65 1325.78,622.36 C1325.31,622.08 1321.16,614.05 1316.56,604.54 C1308.83,588.56 1306.66,585.01 1305.39,586.28 C1305.12,586.54 1303.38,596.61 1301.51,608.65 C1299.64,620.70 1297.80,631.36 1297.42,632.36 C1297.03,633.35 1295.77,634.55 1294.61,635.02 C1293.21,635.59 1295.36,635.86 1301.00,635.84 C1305.94,635.82 1308.45,635.51 1307.00,635.11 ZM 20.28 593.39 C20.62,593.05 20.16,591.65 19.26,590.28 C17.89,588.18 17.80,586.99 18.73,582.64 C19.33,579.81 20.17,576.60 20.58,575.50 L 21.34 573.50 L 19.06 575.50 C16.12,578.08 12.00,586.22 12.00,589.44 C12.00,591.40 12.70,592.14 15.25,592.88 C19.47,594.10 19.56,594.11 20.28,593.39 ZM 1484.43 585.60 C1487.77,579.24 1487.77,576.24 1484.43,574.98 C1483.02,574.44 1481.03,574.00 1480.01,574.00 C1478.27,574.00 1478.25,574.19 1479.69,577.09 C1481.22,580.15 1480.97,583.18 1478.46,592.00 L 1477.74 594.50 L 1479.80 592.50 C1480.93,591.40 1483.01,588.30 1484.43,585.60 ZM 1473.48 584.67 C1474.86,581.89 1476.00,578.78 1476.00,577.78 C1476.00,575.89 1472.44,574.00 1468.90,574.00 C1467.20,574.00 1467.08,574.29 1468.08,576.14 C1469.22,578.29 1468.88,586.09 1467.43,591.00 C1466.69,593.48 1466.70,593.49 1468.82,591.62 C1469.99,590.58 1472.09,587.45 1473.48,584.67 ZM 453.72 531.38 C456.35,530.49 459.74,528.89 461.25,527.81 C463.85,525.97 464.00,525.45 464.00,517.93 L 464.00 510.00 L 455.00 510.00 C446.07,510.00 446.00,510.02 446.00,512.50 C446.00,514.89 446.26,515.00 452.06,515.00 L 458.11 515.00 L 457.81 519.20 C457.55,522.75 456.99,523.70 454.21,525.32 C447.31,529.33 437.50,527.24 432.64,520.72 C429.72,516.80 429.19,505.85 431.70,501.02 C434.33,495.93 439.27,493.00 445.20,493.00 C451.34,493.00 455.35,495.03 456.98,498.95 C458.30,502.13 459.48,502.62 462.00,501.01 C463.31,500.17 463.25,499.58 461.50,496.36 C458.55,490.90 454.96,488.70 448.25,488.21 C441.44,487.72 435.33,489.16 431.51,492.17 C427.56,495.28 424.02,503.46 424.02,509.50 C424.01,520.78 428.55,527.78 438.01,531.04 C444.80,533.38 447.62,533.44 453.72,531.38 ZM 647.27 529.79 C650.25,528.14 652.21,525.96 654.30,522.00 C656.92,517.01 657.15,515.79 656.77,508.89 C656.29,500.17 654.49,496.32 648.73,491.67 C641.72,486.00 628.00,487.07 621.82,493.77 C616.30,499.75 614.49,510.47 617.53,519.10 C619.52,524.73 622.33,527.70 628.50,530.68 C634.54,533.60 640.92,533.30 647.27,529.79 ZM 485.82 530.25 C486.32,529.29 488.66,521.41 491.03,512.75 C493.40,504.09 495.70,497.00 496.13,497.00 C496.57,497.00 497.39,498.69 497.95,500.75 C506.52,531.88 506.37,531.48 509.22,531.81 C512.28,532.17 511.60,533.93 519.34,505.50 L 523.70 489.50 L 521.26 489.17 C519.92,489.00 518.61,489.05 518.36,489.30 C518.11,489.56 516.11,497.10 513.92,506.08 C511.73,515.06 509.75,522.58 509.53,522.80 C509.31,523.02 508.65,521.24 508.05,518.85 C506.89,514.16 503.77,502.69 501.36,494.25 C499.92,489.22 499.71,489.00 496.40,489.00 C492.31,489.00 492.64,488.32 487.49,507.50 C485.42,515.20 483.41,521.86 483.01,522.31 C482.34,523.06 480.99,518.00 476.36,497.25 C474.60,489.36 474.40,489.00 471.76,489.00 C470.24,489.00 469.00,489.42 469.00,489.93 C469.00,490.85 475.66,516.48 478.57,526.75 C479.84,531.24 480.41,532.00 482.49,532.00 C483.83,532.00 485.33,531.21 485.82,530.25 ZM 530.54 525.50 L 532.77 519.50 L 542.14 519.22 L 551.51 518.93 L 553.37 524.22 C554.39,527.12 555.68,530.06 556.23,530.75 C557.32,532.09 561.97,532.49 562.04,531.25 C562.07,530.84 558.35,521.15 553.79,509.72 L 545.50 488.94 L 542.01 489.22 L 538.53 489.50 L 530.79 509.50 C526.53,520.50 523.04,530.09 523.03,530.82 C523.01,531.66 523.96,532.02 525.66,531.82 C527.90,531.55 528.66,530.56 530.54,525.50 ZM 593.82 529.25 C594.13,527.04 593.96,527.00 583.57,527.00 L 573.00 527.00 L 573.00 508.00 L 573.00 489.00 L 570.00 489.00 L 567.00 489.00 L 567.00 509.83 C567.00,521.29 567.31,530.98 567.70,531.36 C568.08,531.74 574.04,531.93 580.95,531.78 C593.11,531.51 593.51,531.43 593.82,529.25 ZM 607.77 510.25 L 608.04 489.00 L 605.02 489.00 L 602.00 489.00 L 602.00 510.57 L 602.00 532.13 L 604.75 531.82 L 607.50 531.50 L 607.77 510.25 ZM 670.79 522.25 L 671.08 513.00 L 676.10 513.00 C678.87,513.00 681.93,513.43 682.91,513.95 C683.89,514.48 687.26,518.75 690.38,523.45 C694.90,530.24 696.57,532.00 698.48,532.00 C699.80,532.00 701.14,531.59 701.45,531.08 C702.07,530.08 695.17,519.06 691.31,514.89 L 688.90 512.28 L 691.98 511.01 C698.53,508.29 700.96,500.70 697.45,493.91 C695.26,489.67 692.58,489.00 677.93,489.00 L 665.00 489.00 L 665.00 510.57 L 665.00 532.13 L 667.75 531.82 L 670.50 531.50 L 670.79 522.25 ZM 768.00 514.80 C768.00,504.05 768.35,497.96 768.94,498.55 C769.46,499.07 772.32,506.70 775.30,515.50 C780.26,530.17 780.92,531.53 783.24,531.81 C785.57,532.09 786.00,531.47 788.75,523.81 C790.39,519.24 792.95,511.79 794.44,507.25 C795.94,502.71 797.58,499.00 798.08,499.00 C798.60,499.00 799.00,506.18 799.00,515.57 L 799.00 532.14 L 801.25 531.82 C803.49,531.50 803.50,531.43 803.77,510.25 L 804.04 489.00 L 800.15 489.00 C795.76,489.00 796.80,487.01 788.43,511.50 C786.37,517.55 784.35,522.88 783.94,523.35 C783.54,523.81 780.58,516.27 777.38,506.60 L 771.54 489.00 L 767.27 489.00 L 763.00 489.00 L 763.00 510.50 L 763.00 532.00 L 765.50 532.00 L 768.00 532.00 L 768.00 514.80 ZM 819.00 523.00 L 819.50 514.50 L 829.00 514.00 C834.22,513.72 839.51,512.92 840.74,512.22 C843.96,510.38 846.00,505.81 846.00,500.45 C846.00,496.50 845.49,495.29 842.60,492.40 L 839.20 489.00 L 826.10 489.00 L 813.00 489.00 L 813.00 509.83 C813.00,521.29 813.32,530.99 813.71,531.38 C814.10,531.77 815.34,531.95 816.46,531.79 C818.28,531.53 818.55,530.60 819.00,523.00 ZM 913.77 510.25 L 914.04 489.00 L 911.02 489.00 L 908.00 489.00 L 908.00 509.83 C908.00,521.29 908.32,530.99 908.71,531.38 C909.10,531.77 910.34,531.95 911.46,531.79 C913.43,531.51 913.51,530.78 913.77,510.25 ZM 929.00 516.50 C929.00,504.58 929.30,501.00 930.28,501.00 C930.98,501.00 936.23,508.00 941.94,516.55 C951.28,530.55 952.58,532.07 954.91,531.80 L 957.50 531.50 L 957.77 510.25 L 958.04 489.00 L 955.04 489.00 L 952.05 489.00 L 951.77 505.03 L 951.50 521.06 L 941.00 505.06 C931.03,489.86 930.34,489.05 927.25,489.03 L 924.00 489.00 L 924.00 510.50 L 924.00 532.00 L 926.50 532.00 L 929.00 532.00 L 929.00 516.50 ZM 991.77 530.45 C1000.10,526.97 1003.57,519.74 1002.78,507.48 C1002.25,499.14 1000.11,494.67 995.05,491.25 C992.05,489.23 990.49,489.00 979.85,489.00 L 968.00 489.00 L 968.00 510.50 L 968.00 532.00 L 978.03 532.00 C984.82,532.00 989.26,531.50 991.77,530.45 ZM 1017.77 510.25 L 1018.04 489.00 L 1015.02 489.00 L 1012.00 489.00 L 1012.00 509.83 C1012.00,521.29 1012.32,530.99 1012.71,531.38 C1013.10,531.77 1014.34,531.95 1015.46,531.79 C1017.43,531.51 1017.51,530.78 1017.77,510.25 ZM 1031.47 525.50 L 1033.70 519.50 L 1042.95 519.50 L 1052.21 519.50 L 1054.71 525.75 C1056.78,530.92 1057.62,532.00 1059.55,532.00 C1060.83,532.00 1062.15,531.57 1062.48,531.04 C1062.80,530.51 1059.90,522.30 1056.02,512.79 C1045.66,487.38 1046.56,489.00 1042.74,489.00 L 1039.46 489.00 L 1031.73 509.25 C1027.48,520.39 1024.00,530.09 1024.00,530.82 C1024.00,531.65 1024.96,532.02 1026.62,531.82 C1028.81,531.55 1029.60,530.52 1031.47,525.50 ZM 734.96 517.02 C737.93,515.43 739.23,510.34 737.51,507.03 C734.24,500.69 724.00,503.20 724.00,510.34 C724.00,516.06 729.96,519.70 734.96,517.02 ZM 880.66 515.43 C882.74,513.36 883.10,512.26 882.59,509.70 C881.73,505.38 879.68,503.60 875.56,503.60 C868.68,503.60 865.50,510.71 870.17,515.69 C873.10,518.80 877.40,518.70 880.66,515.43 ZM 316.00 456.57 C320.46,454.28 324.77,450.28 326.63,446.71 C328.66,442.83 329.93,426.88 329.97,404.75 L 330.00 386.00 L 322.56 386.00 L 315.12 386.00 L 314.81 412.43 C314.52,437.43 314.39,439.01 312.40,441.68 C307.79,447.90 297.46,448.28 291.11,442.47 L 287.50 439.16 L 287.20 412.58 L 286.91 386.00 L 279.45 386.00 L 272.00 386.00 L 272.02 408.25 C272.04,432.21 273.05,442.69 275.77,447.34 C278.33,451.71 284.30,456.11 289.71,457.63 C296.43,459.52 311.46,458.91 316.00,456.57 ZM 921.83 457.46 C938.20,452.60 943.66,432.30 931.58,421.19 C927.52,417.45 925.97,416.83 906.26,411.06 C901.15,409.57 898.54,408.23 897.42,406.52 C893.96,401.23 898.98,397.00 908.73,397.00 C915.53,397.00 918.55,398.69 920.62,403.63 C922.01,406.97 922.09,407.00 928.54,407.00 C936.04,407.00 936.70,406.30 935.04,400.15 C933.65,394.98 929.87,390.50 924.62,387.77 C919.70,385.21 904.86,384.15 898.40,385.89 C883.83,389.82 878.11,403.78 886.22,415.62 C889.30,420.12 895.39,423.22 908.50,426.96 C920.93,430.51 924.66,433.23 923.50,437.89 C921.27,446.89 907.35,449.76 899.48,442.85 C897.63,441.23 895.59,438.30 894.95,436.34 C893.82,432.94 893.60,432.80 890.14,433.38 C888.14,433.71 884.99,433.98 883.14,433.99 C879.80,434.00 879.78,434.02 880.47,437.75 C881.42,442.88 885.52,449.99 889.24,452.96 C896.36,458.64 911.02,460.67 921.83,457.46 ZM 397.23 434.77 L 397.50 411.54 L 400.94 417.02 C408.89,429.69 411.03,433.12 418.57,445.29 L 426.49 458.08 L 433.50 457.79 L 440.50 457.50 L 440.76 421.75 L 441.03 386.00 L 434.01 386.00 L 427.00 386.00 L 426.93 406.25 C426.89,417.39 426.51,427.39 426.09,428.48 C425.22,430.69 425.68,431.30 414.51,413.00 C411.32,407.77 406.26,399.56 403.27,394.75 L 397.82 386.00 L 390.91 386.00 L 384.00 386.00 L 384.00 422.00 L 384.00 458.00 L 390.48 458.00 L 396.96 458.00 L 397.23 434.77 ZM 508.76 421.75 L 509.03 386.00 L 501.51 386.00 L 494.00 386.00 L 494.00 421.33 C494.00,440.77 494.32,456.99 494.71,457.37 C495.10,457.76 498.36,457.95 501.96,457.79 L 508.50 457.50 L 508.76 421.75 ZM 595.00 457.74 C595.00,457.60 597.50,450.51 600.56,441.99 C610.97,413.01 620.00,387.28 620.00,386.64 C620.00,386.29 616.66,386.00 612.58,386.00 L 605.17 386.00 L 596.96 410.75 C592.44,424.36 588.41,435.87 588.00,436.33 C587.19,437.22 584.62,430.41 575.52,403.25 L 569.73 386.00 L 561.76 386.00 C554.56,386.00 553.86,386.17 554.50,387.75 C554.89,388.71 558.72,399.40 563.01,411.50 C574.22,443.09 578.94,456.10 579.57,457.11 C580.04,457.87 595.00,458.48 595.00,457.74 ZM 721.00 452.02 L 721.00 446.04 L 701.25 445.77 L 681.50 445.50 L 681.21 435.75 L 680.93 426.00 L 698.96 426.00 L 717.00 426.00 L 717.00 420.02 L 717.00 414.05 L 699.25 413.77 L 681.50 413.50 L 681.21 405.75 L 680.92 398.00 L 700.46 398.00 L 720.00 398.00 L 720.00 392.00 L 720.00 386.00 L 693.50 386.00 L 667.00 386.00 L 667.00 422.00 L 667.00 458.00 L 694.00 458.00 L 721.00 458.00 L 721.00 452.02 ZM 786.78 442.75 L 787.05 428.00 L 791.78 428.04 C794.37,428.05 797.62,428.69 798.99,429.45 C800.36,430.21 805.53,436.83 810.49,444.16 L 819.50 457.50 L 827.75 457.79 C833.04,457.98 836.00,457.70 836.00,457.03 C836.00,454.86 822.33,434.33 818.17,430.26 L 813.83 426.01 L 816.48 425.01 C817.94,424.45 819.54,424.00 820.03,424.00 C820.53,424.00 822.49,422.63 824.40,420.95 C834.31,412.25 832.59,393.99 821.34,388.41 C817.97,386.73 814.70,386.46 794.75,386.17 L 772.00 385.84 L 772.00 421.25 C772.00,440.73 772.32,456.99 772.71,457.37 C773.10,457.76 776.36,457.95 779.96,457.79 L 786.50 457.50 L 786.78 442.75 ZM 1003.00 422.00 L 1003.00 386.00 L 996.00 386.00 L 989.00 386.00 L 989.00 422.00 L 989.00 458.00 L 996.00 458.00 L 1003.00 458.00 L 1003.00 422.00 ZM 1086.00 428.00 L 1086.00 398.00 L 1096.84 398.00 L 1107.67 398.00 L 1107.89 391.98 L 1108.11 385.97 L 1079.31 386.23 L 1050.51 386.50 L 1050.68 391.00 C1050.78,393.48 1050.89,396.06 1050.93,396.75 C1050.98,397.67 1053.80,398.00 1061.50,398.00 L 1072.00 398.00 L 1072.00 428.00 L 1072.00 458.00 L 1079.00 458.00 L 1086.00 458.00 L 1086.00 428.00 ZM 1189.00 441.99 L 1189.50 426.47 L 1201.50 407.56 C1208.10,397.16 1213.86,388.05 1214.30,387.32 C1214.94,386.27 1213.42,386.00 1206.77,386.00 L 1198.44 386.00 L 1190.63 399.50 C1186.33,406.92 1182.51,413.00 1182.14,413.00 C1181.76,413.00 1177.87,406.94 1173.48,399.52 L 1165.50 386.05 L 1157.25 386.02 C1152.71,386.01 1149.00,386.23 1149.00,386.51 C1149.00,387.02 1157.82,401.32 1161.03,406.00 C1161.97,407.38 1165.28,412.60 1168.37,417.61 L 1174.00 426.72 L 1174.00 441.69 C1174.00,449.93 1174.32,456.99 1174.71,457.37 C1175.10,457.76 1178.36,457.95 1181.96,457.79 L 1188.50 457.50 L 1189.00 441.99 ZM 1215.00 334.00 L 1215.00 330.00 L 1172.00 330.00 L 1129.00 330.00 L 1129.00 324.50 L 1129.00 319.00 L 1089.05 319.00 L 1049.10 319.00 L 1048.80 324.25 L 1048.50 329.50 L 1026.25 329.77 L 1004.00 330.04 L 1004.00 324.52 L 1004.00 319.00 L 971.00 319.00 L 938.00 319.00 L 938.00 324.50 L 938.00 330.00 L 916.50 330.00 L 895.00 330.00 L 895.00 324.50 L 895.00 319.00 L 855.55 319.00 L 816.10 319.00 L 815.80 324.25 L 815.50 329.50 L 747.25 329.76 L 679.00 330.01 L 679.00 322.01 L 679.00 314.00 L 633.54 314.00 L 588.08 314.00 L 587.79 321.75 L 587.50 329.50 L 519.50 329.50 L 451.50 329.50 L 451.21 320.25 L 450.92 311.00 L 405.46 311.00 L 360.00 311.00 L 360.00 320.50 L 360.00 330.00 L 316.00 330.00 L 272.00 330.00 L 272.00 333.33 C272.00,335.17 272.30,336.97 272.67,337.33 C273.03,337.70 485.21,338.00 744.17,338.00 L 1215.00 338.00 L 1215.00 334.00 ZM 1215.00 302.00 L 1215.00 298.00 L 1172.00 298.00 L 1129.00 298.00 L 1129.00 292.64 L 1129.00 287.28 L 1122.53 286.61 C1114.85,285.83 1054.48,285.85 1051.30,286.65 C1049.44,287.11 1049.05,287.99 1048.80,292.35 L 1048.50 297.50 L 1029.75 297.77 L 1011.00 298.04 L 1011.00 292.52 L 1011.00 287.00 L 970.91 287.00 L 930.82 287.00 L 931.16 292.25 L 931.50 297.50 L 913.25 297.77 L 895.00 298.05 L 895.00 292.63 C895.00,289.20 894.54,287.05 893.75,286.77 C891.45,285.96 818.52,285.93 817.31,286.74 C816.66,287.18 815.99,289.78 815.81,292.52 L 815.50 297.50 L 747.25 297.76 L 679.00 298.01 L 679.00 290.01 L 679.00 282.00 L 633.54 282.00 L 588.08 282.00 L 587.79 289.75 L 587.50 297.50 L 519.50 297.50 L 451.50 297.50 L 451.21 288.25 L 450.92 279.00 L 405.50 279.00 L 360.08 279.00 L 359.79 288.25 L 359.50 297.50 L 315.75 297.76 L 272.00 298.02 L 272.00 302.01 L 272.00 306.00 L 743.50 306.00 L 1215.00 306.00 L 1215.00 302.00 ZM 1215.00 270.50 L 1215.00 266.00 L 1172.00 266.00 L 1129.00 266.00 L 1129.00 260.50 L 1129.00 255.00 L 1089.05 255.00 L 1049.10 255.00 L 1048.80 260.25 L 1048.50 265.50 L 1033.25 265.78 L 1018.00 266.05 L 1018.00 260.53 L 1018.00 255.00 L 970.93 255.00 L 923.86 255.00 L 924.18 260.25 L 924.50 265.50 L 909.75 265.78 L 895.00 266.05 L 895.00 260.53 L 895.00 255.00 L 855.55 255.00 L 816.10 255.00 L 815.80 260.25 L 815.50 265.50 L 747.25 265.76 L 679.00 266.01 L 679.00 258.01 L 679.00 250.00 L 633.54 250.00 L 588.08 250.00 L 587.79 257.75 L 587.50 265.50 L 519.50 265.50 L 451.50 265.50 L 451.21 256.25 L 450.92 247.00 L 405.50 247.00 L 360.08 247.00 L 359.79 256.25 L 359.50 265.50 L 315.75 265.76 L 272.00 266.02 L 272.00 269.84 C272.00,271.95 272.30,273.97 272.67,274.33 C273.03,274.70 485.21,275.00 744.17,275.00 L 1215.00 275.00 L 1215.00 270.50 ZM 1215.00 238.65 L 1215.00 235.29 L 1207.35 234.65 C1203.14,234.29 1183.79,234.00 1164.35,234.00 L 1129.00 234.00 L 1129.00 228.50 L 1129.00 223.00 L 1089.00 223.00 L 1049.00 223.00 L 1049.00 228.50 L 1049.00 234.00 L 1036.67 234.00 L 1024.34 234.00 L 1024.79 228.50 L 1025.25 223.00 L 971.20 223.00 L 917.14 223.00 L 917.71 228.50 L 918.28 234.00 L 906.64 234.00 L 895.00 234.00 L 895.00 228.50 L 895.00 223.00 L 855.50 223.00 L 816.00 223.00 L 816.00 228.50 L 816.00 234.00 L 747.50 234.00 L 679.00 234.00 L 679.00 226.00 L 679.00 218.00 L 633.50 218.00 L 588.00 218.00 L 588.00 226.00 L 588.00 234.00 L 519.50 234.00 L 451.00 234.00 L 451.00 224.50 L 451.00 215.00 L 405.50 215.00 L 360.00 215.00 L 360.00 224.50 L 360.00 234.00 L 316.00 234.00 L 272.00 234.00 L 272.00 238.00 L 272.00 242.00 L 743.50 242.00 L 1215.00 242.00 L 1215.00 238.65 ZM 1214.81 206.25 L 1214.50 202.50 L 1171.75 202.24 L 1129.00 201.98 L 1129.00 196.49 L 1129.00 191.00 L 1089.05 191.00 L 1049.10 191.00 L 1048.80 196.25 L 1048.50 201.50 L 1040.25 201.79 L 1032.00 202.08 L 1032.00 196.52 L 1032.00 190.97 L 1004.25 191.23 L 976.50 191.50 L 976.23 194.50 C975.59,201.50 975.23,202.00 970.98,202.00 C967.46,202.00 967.00,201.73 967.00,199.62 C967.00,198.32 966.72,195.84 966.38,194.12 L 965.75 191.00 L 938.28 191.00 L 910.81 191.00 L 911.16 196.50 L 911.50 202.00 L 903.25 202.00 L 895.00 202.00 L 895.00 196.50 L 895.00 191.00 L 855.50 191.00 L 816.00 191.00 L 816.00 196.50 L 816.00 202.00 L 747.50 202.00 L 679.00 202.00 L 679.00 194.62 L 679.00 187.24 L 657.75 186.60 C641.81,186.11 596.43,186.34 588.75,186.94 C588.34,186.97 588.00,190.38 588.00,194.50 L 588.00 202.00 L 519.50 202.00 L 451.00 202.00 L 451.00 192.50 L 451.00 183.00 L 405.50 183.00 L 360.00 183.00 L 360.00 192.50 L 360.00 202.00 L 316.00 202.00 L 272.00 202.00 L 272.00 206.00 L 272.00 210.00 L 743.56 210.00 L 1215.12 210.00 L 1214.81 206.25 ZM 970.33 178.33 L 1215.00 177.67 L 1215.00 174.33 L 1215.00 171.00 L 1175.25 170.85 C1153.39,170.76 1135.05,170.59 1134.50,170.46 C1133.95,170.34 1132.49,170.18 1131.25,170.12 C1129.20,170.01 1129.00,169.50 1129.00,164.50 L 1129.00 159.00 L 1089.00 159.00 L 1049.00 159.00 L 1049.00 164.38 C1049.00,169.58 1048.90,169.77 1045.90,170.37 C1044.20,170.71 1041.73,170.72 1040.41,170.39 C1038.14,169.82 1038.04,169.49 1038.64,164.39 L 1039.28 159.00 L 1015.39 159.01 C1002.25,159.02 989.87,159.29 987.87,159.62 C984.43,160.19 984.21,160.46 983.73,164.66 C983.46,167.10 982.92,169.41 982.53,169.80 C981.67,170.66 961.41,170.74 960.55,169.89 C960.21,169.55 959.66,166.96 959.33,164.14 L 958.72 159.00 L 934.99 159.00 C921.93,159.00 909.84,159.28 908.12,159.62 C905.15,160.22 905.00,160.48 905.00,165.01 C905.00,169.29 904.75,169.81 902.50,170.24 C901.12,170.51 898.88,170.51 897.50,170.24 C895.20,169.81 895.00,169.33 895.00,164.38 L 895.00 159.00 L 855.50 159.00 L 816.00 159.00 L 816.00 164.38 C816.00,169.46 815.84,169.80 813.25,170.30 C809.49,171.03 684.23,171.10 681.33,170.37 C679.14,169.82 679.00,169.32 679.00,161.89 L 679.00 154.00 L 633.50 154.00 L 588.00 154.00 L 588.00 161.88 L 588.00 169.75 L 584.88 170.38 C580.76,171.20 461.64,171.19 455.64,170.36 L 451.00 169.73 L 451.00 160.86 L 451.00 152.00 L 405.54 152.00 L 360.08 152.00 L 359.79 161.25 L 359.50 170.50 L 315.75 170.76 L 272.00 171.02 L 272.00 174.34 C272.00,176.17 272.30,177.97 272.67,178.33 C273.52,179.19 655.50,179.19 970.33,178.33 ZM 1215.00 143.00 L 1215.00 139.00 L 1172.00 139.00 L 1129.00 139.00 L 1129.00 133.50 L 1129.00 128.00 L 1089.07 128.00 L 1049.14 128.00 L 1048.45 133.55 C1047.90,137.94 1047.42,139.03 1046.13,138.77 C1044.82,138.50 1044.56,137.40 1044.82,133.22 L 1045.14 128.00 L 1018.57 128.00 L 992.00 128.00 L 992.00 130.38 C992.00,131.68 991.72,134.17 991.37,135.90 L 990.74 139.04 L 971.62 138.77 L 952.50 138.50 L 951.85 133.18 C951.49,130.26 951.04,127.77 950.85,127.64 C950.66,127.52 938.93,127.59 924.80,127.81 L 899.10 128.20 L 898.80 133.35 C898.58,137.13 898.10,138.50 897.00,138.50 C895.90,138.50 895.42,137.12 895.20,133.25 L 894.90 128.00 L 855.50 128.00 L 816.10 128.00 L 815.80 133.25 L 815.50 138.50 L 747.25 138.76 L 679.00 139.01 L 679.00 131.01 L 679.00 123.00 L 633.54 123.00 L 588.08 123.00 L 587.79 130.75 L 587.50 138.50 L 519.50 138.50 L 451.50 138.50 L 451.21 129.25 L 450.92 120.00 L 405.50 120.00 L 360.08 120.00 L 359.79 129.25 L 359.50 138.50 L 315.75 138.76 L 272.00 139.02 L 272.00 142.34 C272.00,144.17 272.30,145.97 272.67,146.33 C273.03,146.70 485.21,147.00 744.17,147.00 L 1215.00 147.00 L 1215.00 143.00 ZM 1215.00 111.00 L 1215.00 107.00 L 1172.00 107.00 L 1129.00 107.00 L 1129.00 101.66 L 1129.00 96.32 L 1087.99 95.68 C1065.43,95.33 1036.46,95.32 1023.60,95.68 L 1000.23 96.31 L 999.36 101.41 L 998.50 106.50 L 972.23 106.77 L 945.96 107.03 L 944.98 104.45 C944.44,103.03 944.00,100.62 944.00,99.09 L 944.00 96.32 L 920.61 95.66 C907.75,95.30 878.97,95.30 856.66,95.66 L 816.09 96.32 L 815.80 101.41 L 815.50 106.50 L 747.56 106.76 C678.08,107.02 677.30,106.98 678.70,103.35 C679.10,102.28 686.90,101.97 718.35,101.76 L 757.50 101.50 L 757.80 96.25 L 758.10 91.00 L 633.50 91.00 L 508.90 91.00 L 509.20 96.25 L 509.50 101.50 L 548.82 101.76 L 588.14 102.02 L 587.82 104.26 L 587.50 106.50 L 519.50 106.50 L 451.50 106.50 L 451.21 97.25 L 450.92 88.00 L 405.46 88.00 L 360.00 88.00 L 360.00 97.50 L 360.00 107.00 L 316.00 107.00 L 272.00 107.00 L 272.00 110.33 C272.00,112.17 272.30,113.97 272.67,114.33 C273.03,114.70 485.21,115.00 744.17,115.00 L 1215.00 115.00 L 1215.00 111.00 ZM 1215.00 79.00 L 1215.00 75.00 L 1172.00 75.00 L 1129.00 75.00 L 1129.00 69.50 L 1129.00 64.00 L 1068.58 64.00 L 1008.15 64.00 L 1007.32 69.25 L 1006.48 74.50 L 972.56 74.76 C936.09,75.05 937.05,75.18 937.02,69.83 C936.98,63.56 941.58,64.00 875.95,64.00 L 816.10 64.00 L 815.80 69.25 L 815.50 74.50 L 787.00 74.50 L 758.50 74.50 L 758.21 66.75 L 757.92 59.00 L 633.46 59.00 L 509.00 59.00 L 509.00 66.48 C509.00,73.41 508.83,74.00 506.75,74.51 C505.51,74.81 492.58,74.94 478.00,74.78 L 451.50 74.50 L 451.21 65.25 L 450.92 56.00 L 405.46 56.00 L 360.00 56.00 L 360.00 65.50 L 360.00 75.00 L 316.00 75.00 L 272.00 75.00 L 272.00 78.33 C272.00,80.17 272.30,81.97 272.67,82.33 C273.03,82.70 485.21,83.00 744.17,83.00 L 1215.00 83.00 L 1215.00 79.00 ZM 1215.00 47.00 L 1215.00 43.00 L 1172.00 43.00 L 1129.00 43.00 L 1129.00 37.50 L 1129.00 32.00 L 1072.52 32.00 L 1016.04 32.00 L 1015.54 34.25 C1015.27,35.49 1014.93,37.85 1014.77,39.50 L 1014.50 42.50 L 972.33 42.76 L 930.16 43.02 L 929.32 37.76 L 928.48 32.50 L 872.29 32.24 L 816.11 31.98 L 815.80 37.24 L 815.50 42.50 L 787.00 42.50 L 758.50 42.50 L 758.21 34.75 L 757.92 27.00 L 633.50 27.00 L 509.08 27.00 L 508.79 34.75 L 508.50 42.50 L 480.00 42.50 L 451.50 42.50 L 451.21 33.25 L 450.92 24.00 L 405.50 24.00 L 360.08 24.00 L 359.79 33.25 L 359.50 42.50 L 315.75 42.76 L 272.00 43.02 L 272.00 47.01 L 272.00 51.00 L 743.50 51.00 L 1215.00 51.00 L 1215.00 47.00 ZM 457.50 636.00 C457.84,635.45 457.22,635.00 456.13,635.00 C452.21,635.00 451.00,632.39 451.00,623.93 L 451.00 616.00 L 454.75 616.02 C458.27,616.05 458.83,616.51 463.79,623.50 C469.94,632.18 474.12,635.68 479.00,636.26 C480.92,636.49 476.74,636.75 469.69,636.84 C461.37,636.94 457.10,636.65 457.50,636.00 ZM 526.43 636.11 C526.73,635.63 526.08,634.99 524.99,634.71 C522.43,634.04 522.47,631.55 525.13,625.13 L 527.27 620.00 L 535.48 620.00 L 543.70 620.00 L 546.46 626.49 C547.98,630.06 548.97,633.64 548.66,634.44 C548.23,635.56 549.19,635.98 552.80,636.27 C555.39,636.47 550.39,636.72 541.69,636.82 C532.71,636.92 526.12,636.62 526.43,636.11 ZM 747.00 636.00 L 749.50 635.20 L 746.79 635.10 C745.29,635.04 743.66,634.21 743.17,633.25 C742.02,631.03 740.61,602.00 741.65,602.00 C742.08,602.00 750.35,609.88 760.03,619.50 L 777.63 637.00 L 761.06 636.90 C751.21,636.84 745.51,636.48 747.00,636.00 ZM 1080.50 636.00 C1082.32,635.22 1082.27,635.13 1079.95,635.07 C1075.78,634.96 1075.00,633.27 1075.00,624.30 L 1075.00 616.00 L 1078.46 616.00 C1081.59,616.00 1082.43,616.69 1087.32,623.25 C1094.11,632.36 1097.00,635.02 1101.18,636.01 C1103.35,636.52 1100.00,636.81 1091.50,636.83 C1083.39,636.85 1079.25,636.54 1080.50,636.00 ZM 1224.50 636.00 C1224.84,635.45 1224.13,635.00 1222.93,635.00 C1220.97,635.00 1220.79,634.61 1221.27,631.25 C1221.57,629.19 1222.54,625.81 1223.42,623.75 L 1225.03 620.00 L 1233.43 620.00 L 1241.83 620.00 L 1244.49 626.97 C1245.95,630.81 1246.88,634.38 1246.56,634.91 C1246.22,635.45 1247.64,636.05 1249.73,636.27 C1251.80,636.49 1246.84,636.74 1238.69,636.83 C1229.03,636.94 1224.10,636.65 1224.50,636.00 ZM 988.12 633.00 C986.26,632.56 984.36,631.59 983.89,630.85 C983.42,630.11 983.02,620.84 983.02,610.25 L 983.00 591.00 L 988.25 591.01 C1003.63,591.02 1012.00,598.83 1012.00,613.15 C1012.00,616.84 1011.52,621.14 1010.94,622.68 C1009.22,627.22 1004.94,630.94 999.61,632.52 C994.17,634.14 993.13,634.18 988.12,633.00 ZM 376.57 631.43 C375.37,630.22 375.00,627.67 375.00,620.43 L 375.00 611.00 L 378.05 611.00 C381.93,611.00 386.61,613.40 388.08,616.15 C391.50,622.53 390.99,629.86 386.99,632.01 C384.17,633.52 378.34,633.19 376.57,631.43 ZM 529.58 616.12 C528.79,614.85 535.15,599.74 536.07,600.70 C537.46,602.13 542.01,615.18 541.44,616.10 C540.72,617.26 530.29,617.28 529.58,616.12 ZM 1227.54 616.06 C1226.98,615.17 1231.53,602.37 1233.00,600.70 C1233.87,599.71 1240.18,614.89 1239.42,616.12 C1238.70,617.30 1228.27,617.25 1227.54,616.06 ZM 451.67 612.33 C451.30,611.97 451.00,607.02 451.00,601.33 L 451.00 591.00 L 455.28 591.00 C460.79,591.00 463.68,593.09 465.01,598.04 C466.36,603.04 464.84,609.30 461.75,611.46 C459.55,613.01 452.91,613.58 451.67,612.33 ZM 1075.67 612.33 C1075.30,611.97 1075.00,607.02 1075.00,601.33 L 1075.00 591.00 L 1078.45 591.00 C1085.71,591.00 1089.00,594.47 1089.00,602.11 C1089.00,606.42 1087.64,609.76 1085.09,611.72 C1083.40,613.02 1076.78,613.45 1075.67,612.33 ZM 375.67 607.33 C375.30,606.97 375.00,603.14 375.00,598.83 L 375.00 591.00 L 378.85 591.00 C383.12,591.00 385.44,592.89 386.53,597.25 C387.37,600.62 386.52,604.34 384.43,606.43 C382.86,607.99 376.94,608.60 375.67,607.33 ZM 451.68 10.35 C451.31,9.97 451.00,7.49 451.00,4.83 L 451.00 0.00 L 480.05 0.00 L 509.10 0.00 L 508.80 5.25 L 508.50 10.50 L 480.43 10.77 C464.99,10.91 452.06,10.72 451.68,10.35 ZM 758.62 7.88 C758.28,6.16 758.00,3.68 758.00,2.38 L 758.00 0.00 L 787.00 0.00 L 816.00 0.00 L 815.99 3.25 C815.98,5.04 815.70,7.51 815.37,8.75 L 814.77 11.00 L 787.01 11.00 L 759.25 11.00 L 758.62 7.88 ZM 921.65 9.25 C921.39,8.29 920.89,5.81 920.54,3.75 L 919.91 -0.00 L 972.52 0.00 C1022.15,0.00 1025.11,0.10 1024.65,1.75 C1024.39,2.71 1023.89,5.19 1023.54,7.25 L 1022.91 11.00 L 972.52 11.00 C925.38,11.00 922.10,10.89 921.65,9.25 ZM 631.50 526.64 C625.11,523.69 622.00,518.13 622.00,509.68 C622.01,496.94 632.23,489.73 643.56,494.46 C649.98,497.14 653.26,510.65 649.61,519.38 C646.86,525.97 637.86,529.58 631.50,526.64 ZM 535.34 512.75 C535.62,512.06 537.10,507.79 538.63,503.25 C540.16,498.71 541.66,495.00 541.96,495.00 C542.26,495.00 543.80,498.72 545.40,503.25 C546.99,507.79 548.50,512.06 548.75,512.75 C549.09,513.68 547.36,514.00 542.02,514.00 C536.67,514.00 534.96,513.68 535.34,512.75 ZM 671.00 501.10 L 671.00 494.00 L 680.43 494.00 C691.11,494.00 693.00,494.96 693.00,500.42 C693.00,505.88 690.24,507.44 679.90,507.85 L 671.00 508.20 L 671.00 501.10 ZM 819.00 501.50 L 819.00 494.00 L 827.85 494.00 C837.96,494.00 840.01,495.20 839.98,501.08 C839.96,507.33 837.13,509.00 826.57,509.00 L 819.00 509.00 L 819.00 501.50 ZM 973.75 526.44 C973.34,526.01 973.00,518.54 973.00,509.83 L 973.00 494.00 L 981.28 494.00 C990.70,494.00 993.36,495.23 995.61,500.60 C997.39,504.86 997.40,515.11 995.64,519.28 C993.25,524.92 990.81,526.29 982.24,526.77 C977.98,527.01 974.16,526.86 973.75,526.44 ZM 1036.25 512.75 C1036.50,512.06 1038.01,507.79 1039.60,503.25 C1042.24,495.76 1044.00,492.96 1044.00,496.27 C1044.00,496.97 1045.35,501.05 1047.00,505.34 C1048.65,509.62 1050.00,513.32 1050.00,513.56 C1050.00,513.80 1046.80,514.00 1042.89,514.00 C1037.63,514.00 1035.91,513.68 1036.25,512.75 ZM 787.00 407.00 L 787.00 398.00 L 798.05 398.00 C812.77,398.00 816.00,399.62 816.00,407.00 C816.00,414.38 812.77,416.00 798.05,416.00 L 787.00 416.00 L 787.00 407.00 Z" fill="rgb(254,253,253)"/>
</g>
</svg>